<svg width="1441" height="480" viewBox="0 0 1441 480" fill="none" xmlns="http://www.w3.org/2000/svg">
<g clip-path="url(#clip0)">
<path d="M1440.92 0H0.922852V480H1440.92V0Z" fill="#546DF5"/>
<path d="M0.922852 268.569C21.3214 274.353 45.2198 279.111 83.9171 279.111C184.91 279.111 184.91 247.111 286.003 247.111C386.996 247.111 386.996 279.111 487.989 279.111C588.982 279.111 588.982 247.111 690.075 247.111C791.068 247.111 791.068 279.111 892.161 279.111C993.154 279.111 993.154 247.111 1094.25 247.111C1195.24 247.111 1195.24 279.111 1296.33 279.111C1373.43 279.111 1391.73 260.452 1440.92 251.682" stroke="white" stroke-width="1.0091" stroke-miterlimit="10"/>
<path d="M0.922852 222.346C21.3214 228.131 45.2198 232.889 83.9171 232.889C184.91 232.889 184.91 200.889 286.003 200.889C386.996 200.889 386.996 232.889 487.989 232.889C588.982 232.889 588.982 200.889 690.075 200.889C791.068 200.889 791.068 232.889 892.161 232.889C993.154 232.889 993.154 200.889 1094.25 200.889C1195.24 200.889 1195.24 232.889 1296.33 232.889C1373.43 232.889 1391.73 214.23 1440.92 205.46" stroke="white" stroke-width="1.0091" stroke-miterlimit="10"/>
<path d="M0.922852 176.124C21.3214 181.908 45.2198 186.667 83.9171 186.667C184.91 186.667 184.91 154.667 286.003 154.667C386.996 154.667 386.996 186.667 487.989 186.667C588.982 186.667 588.982 154.667 690.075 154.667C791.068 154.667 791.068 186.667 892.161 186.667C993.154 186.667 993.154 154.667 1094.25 154.667C1195.24 154.667 1195.24 186.667 1296.33 186.667C1373.43 186.667 1391.73 168.008 1440.92 159.238" stroke="white" stroke-width="1.0091" stroke-miterlimit="10"/>
<path d="M0.922852 129.902C21.3214 135.686 45.2198 140.444 83.9171 140.444C184.91 140.444 184.91 108.444 286.003 108.444C386.996 108.444 386.996 140.444 487.989 140.444C588.982 140.444 588.982 108.444 690.075 108.444C791.068 108.444 791.068 140.444 892.161 140.444C993.154 140.444 993.154 108.444 1094.25 108.444C1195.24 108.444 1195.24 140.444 1296.33 140.444C1373.43 140.444 1391.73 121.785 1440.92 113.016" stroke="white" stroke-width="1.0091" stroke-miterlimit="10"/>
<path d="M0.922852 83.6799C21.3214 89.4642 45.2198 94.2222 83.9171 94.2222C184.91 94.2222 184.91 62.2222 286.003 62.2222C386.996 62.2222 386.996 94.2222 487.989 94.2222C588.982 94.2222 588.982 62.2222 690.075 62.2222C791.068 62.2222 791.068 94.2222 892.161 94.2222C993.154 94.2222 993.154 62.2222 1094.25 62.2222C1195.24 62.2222 1195.24 94.2222 1296.33 94.2222C1373.43 94.2222 1391.73 75.5633 1440.92 66.7936" stroke="white" stroke-width="1.0091" stroke-miterlimit="10"/>
<path d="M0.922852 37.4577C21.3214 43.242 45.2198 48 83.9171 48C184.91 48 184.91 16 286.003 16C386.996 16 386.996 48 487.989 48C588.982 48 588.982 16 690.075 16C791.068 16 791.068 48 892.161 48C993.154 48 993.154 16 1094.25 16C1195.24 16 1195.24 48 1296.33 48C1373.43 48 1391.73 29.3411 1440.92 20.5714" stroke="white" stroke-width="1.0091" stroke-miterlimit="10"/>
<path d="M0.922852 314.791C21.3214 320.575 45.2198 325.333 83.9171 325.333C184.91 325.333 184.91 293.333 286.003 293.333C386.996 293.333 386.996 325.333 487.989 325.333C588.982 325.333 588.982 293.333 690.075 293.333C791.068 293.333 791.068 325.333 892.161 325.333C993.154 325.333 993.154 293.333 1094.25 293.333C1195.24 293.333 1195.24 325.333 1296.33 325.333C1373.43 325.333 1391.73 306.674 1440.92 297.904" stroke="white" stroke-width="1.0091" stroke-miterlimit="10"/>
<path d="M0.922852 361.013C21.3214 366.797 45.2198 371.555 83.9171 371.555C184.91 371.555 184.91 339.555 286.003 339.555C386.996 339.555 386.996 371.555 487.989 371.555C588.982 371.555 588.982 339.555 690.075 339.555C791.068 339.555 791.068 371.555 892.161 371.555C993.154 371.555 993.154 339.555 1094.25 339.555C1195.24 339.555 1195.24 371.555 1296.33 371.555C1373.43 371.555 1391.73 352.896 1440.92 344.127" stroke="white" stroke-width="1.0091" stroke-miterlimit="10"/>
<path d="M0.922852 407.235C21.3214 413.019 45.2198 417.777 83.9171 417.777C184.91 417.777 184.91 385.777 286.003 385.777C386.996 385.777 386.996 417.777 487.989 417.777C588.982 417.777 588.982 385.777 690.075 385.777C791.068 385.777 791.068 417.777 892.161 417.777C993.154 417.777 993.154 385.777 1094.25 385.777C1195.24 385.777 1195.24 417.777 1296.33 417.777C1373.43 417.777 1391.73 399.118 1440.92 390.349" stroke="white" stroke-width="1.0091" stroke-miterlimit="10"/>
<path d="M0.922852 453.457C21.3214 459.242 45.2198 464 83.9171 464C184.91 464 184.91 432 286.003 432C386.996 432 386.996 464 487.989 464C588.982 464 588.982 432 690.075 432C791.068 432 791.068 464 892.161 464C993.154 464 993.154 432 1094.25 432C1195.24 432 1195.24 464 1296.33 464C1373.43 464 1391.73 445.341 1440.92 436.571" stroke="white" stroke-width="1.0091" stroke-miterlimit="10"/>
<path d="M1266.7 421.286C1267.99 420.808 1269.08 420.33 1269.9 419.852C1268.88 417.941 1267.04 414.938 1263.77 412.344C1260.7 409.955 1257.43 408.658 1254.56 408.044C1256.47 408.112 1258.65 408.181 1261.04 408.249C1261.24 408.249 1261.52 408.249 1261.72 408.249C1263.08 408.249 1264.24 408.249 1265.13 408.249C1265.33 403.198 1265.61 398.215 1265.81 393.164C1264.86 393.096 1263.42 392.959 1261.72 393.096C1259.13 393.301 1255.99 393.983 1252.86 395.895C1249.04 398.215 1244.27 402.857 1245.36 405.519C1245.77 406.474 1246.93 407.089 1248.84 407.498C1247.95 407.498 1247.2 407.566 1246.79 407.566C1243.31 407.839 1240.31 408.863 1237.79 410.092C1243.93 397.601 1250.13 381.834 1252.24 365.794C1255.31 342.928 1234.38 306.957 1219.05 284.228C1210.52 271.6 1203.71 263 1203.71 263H1014.46C997.557 263 983.923 276.719 983.923 293.579V365.725V435.62H991.149H998.716H1000.35C1000.69 435.62 1001.03 435.62 1001.37 435.551C1000.69 437.94 1000.35 440.534 1000.35 443.128C1000.35 459.031 1013.24 471.932 1029.12 471.932C1045 471.932 1057.89 459.031 1057.89 443.128C1057.89 440.466 1057.55 437.94 1056.87 435.483C1057.41 435.551 1057.89 435.62 1058.43 435.62H1060.14H1067.64H1136.63H1137.31H1215.23C1216.39 435.62 1217.61 435.483 1218.7 435.21C1218.36 436.848 1218.16 438.145 1218.02 439.101C1218.5 439.032 1219.11 438.964 1219.73 438.896C1219.52 440.329 1219.39 441.763 1219.39 443.196C1219.39 459.1 1232.27 472 1248.15 472C1264.04 472 1276.92 459.1 1276.92 443.196C1276.79 434.459 1272.83 426.61 1266.7 421.286ZM1206.09 419.17H1138.54V402.038H1171.26C1173.58 402.038 1175.48 400.126 1175.48 397.806V393.915C1175.48 391.594 1173.58 389.683 1171.26 389.683H1128.38C1128.11 389.683 1127.83 389.683 1127.63 389.751V378.011C1127.63 377.261 1127.01 376.646 1126.26 376.646H1120.81C1120.06 376.646 1119.45 377.261 1119.45 378.011V422.514C1119.45 423.265 1118.83 423.879 1118.08 423.879H1077.73C1076.98 423.879 1076.36 423.265 1076.36 422.514V379.445C1076.36 371.8 1070.16 365.657 1062.59 365.657H1064.09V292.145C1064.09 288.186 1067.3 284.978 1071.25 284.978H1203.64C1203.64 284.978 1227.57 327.434 1222.11 363.063C1218.64 385.247 1211.21 406.406 1206.09 419.17Z" stroke="black" stroke-width="3" stroke-miterlimit="10"/>
<path d="M1029.05 472C1044.94 472 1057.82 459.104 1057.82 443.196C1057.82 427.288 1044.94 414.392 1029.05 414.392C1013.16 414.392 1000.28 427.288 1000.28 443.196C1000.28 459.104 1013.16 472 1029.05 472Z" fill="#000A18"/>
<path d="M1029.05 461.011C1038.88 461.011 1046.84 453.035 1046.84 443.197C1046.84 433.358 1038.88 425.382 1029.05 425.382C1019.22 425.382 1011.26 433.358 1011.26 443.197C1011.26 453.035 1019.22 461.011 1029.05 461.011Z" fill="#525862"/>
<path d="M1248.02 472C1263.91 472 1276.79 459.104 1276.79 443.196C1276.79 427.288 1263.91 414.392 1248.02 414.392C1232.13 414.392 1219.25 427.288 1219.25 443.196C1219.25 459.104 1232.13 472 1248.02 472Z" fill="#000A18"/>
<path d="M1248.02 461.011C1257.84 461.011 1265.81 453.035 1265.81 443.197C1265.81 433.358 1257.84 425.382 1248.02 425.382C1238.19 425.382 1230.23 433.358 1230.23 443.197C1230.23 453.035 1238.19 461.011 1248.02 461.011Z" fill="#525862"/>
<path d="M1207.66 419.17H1136.49V433.572H1207.66V419.17Z" fill="#CBB022"/>
<path d="M1171.26 402.105H1128.38C1126.06 402.105 1124.15 400.194 1124.15 397.873V393.983C1124.15 391.662 1126.06 389.751 1128.38 389.751H1171.26C1173.58 389.751 1175.48 391.662 1175.48 393.983V397.873C1175.48 400.194 1173.64 402.105 1171.26 402.105Z" fill="#000A18"/>
<path d="M1217.89 439.1C1219.32 438.964 1221.57 438.691 1224.02 437.735C1230.16 435.414 1230.91 432.002 1236.36 428.111C1243.52 423.06 1251.7 422.309 1256.2 421.968C1257.7 421.832 1260.63 422.787 1264.38 421.968C1266.77 421.49 1268.61 420.603 1269.83 419.92C1268.81 418.009 1266.97 415.006 1263.7 412.412C1256.74 406.883 1248.77 407.43 1246.59 407.634C1237.73 408.385 1232.07 413.504 1229.48 415.825C1220.27 424.221 1218.36 435.278 1217.89 439.1Z" fill="#CBB022"/>
<path d="M1265.81 393.164C1265.61 398.215 1265.33 403.198 1265.13 408.249C1264.24 408.249 1263.02 408.249 1261.72 408.249C1261.52 408.249 1261.24 408.249 1261.04 408.249C1252.11 408.044 1246.31 407.908 1245.29 405.519C1244.2 402.925 1249.04 398.215 1252.79 395.895C1255.93 393.983 1259.13 393.301 1261.65 393.096C1263.43 392.959 1264.86 393.096 1265.81 393.164Z" fill="#FEDC2A"/>
<path d="M1265.81 393.164C1265.61 398.215 1265.33 403.198 1265.13 408.249C1264.24 408.249 1263.02 408.249 1261.72 408.249V393.096C1263.42 392.959 1264.86 393.096 1265.81 393.164Z" fill="#525862"/>
<path d="M1120.74 382.926H1069.41" stroke="#000A18" stroke-width="4.0148" stroke-miterlimit="10"/>
<path d="M1132.4 402.788V284.91" stroke="#000A18" stroke-width="4.0148" stroke-miterlimit="10"/>
<path d="M1123.47 402.788V284.91" stroke="#000A18" stroke-width="4.0148" stroke-miterlimit="10"/>
<path d="M1120.74 395.895H1069.41" stroke="#000A18" stroke-width="4.0148" stroke-miterlimit="10"/>
<path d="M983.923 365.794V293.579C983.923 276.651 997.625 263 1014.46 263H1203.57V284.91H1071.18C1067.23 284.91 1064.02 288.118 1064.02 292.077V365.725H983.923V365.794Z" fill="#000A18"/>
<path d="M1138.54 402.105V434.322C1138.54 435.073 1137.92 435.687 1137.17 435.687H1060.07C1055.5 435.687 1051.21 433.435 1048.62 429.612L1046.91 427.087C1031.37 423.265 1013.71 425.927 1013.71 425.927L1008.94 431.114C1006.28 433.981 1002.6 435.619 998.648 435.619H983.923V365.793H1062.52C1070.16 365.793 1076.29 372.004 1076.29 379.581V422.65C1076.29 423.401 1076.91 424.015 1077.66 424.015H1118.02C1118.77 424.015 1119.38 423.401 1119.38 422.65V378.147C1119.38 377.397 1119.99 376.782 1120.74 376.782H1126.2C1126.95 376.782 1127.56 377.397 1127.56 378.147V399.375C1127.56 400.126 1128.17 400.74 1128.92 400.74H1137.1C1137.92 400.672 1138.54 401.354 1138.54 402.105Z" fill="#FEDC2A"/>
<path d="M1252.11 365.794C1248.56 392.004 1234.38 417.395 1227.02 429.067C1224.43 433.162 1219.93 435.688 1215.02 435.688H1136.42V431.592H1200.71C1200.71 431.592 1216.46 398.693 1221.91 363.063C1227.36 327.434 1203.43 284.979 1203.43 284.979V263.068C1203.43 263.068 1210.25 271.669 1218.77 284.296C1234.25 306.957 1255.18 342.86 1252.11 365.794Z" fill="#FEDC2A"/>
<path d="M1252.11 365.794H1240.38C1237.11 365.794 1234.52 363.064 1234.59 359.787C1235 339.925 1218.23 294.739 1215.02 286.276C1214.75 285.593 1215.23 284.774 1215.98 284.706L1218.91 284.228C1234.25 306.957 1255.18 342.86 1252.11 365.794Z" fill="#000A18"/>
<path d="M1067.5 435.619H1058.3C1054.75 435.619 1051.48 433.912 1049.5 430.977L1048.62 429.681C1047.46 427.974 1045.62 426.746 1043.57 426.336C1032.94 424.357 1021.96 424.971 1016.71 425.517C1014.74 425.722 1012.96 426.609 1011.6 428.042L1007.71 432.274C1005.81 434.39 1003.08 435.619 1000.22 435.619H991.013C991.149 431.251 993.467 407.497 1028.51 408.043C1062.39 408.589 1066.89 430.227 1067.5 435.619Z" fill="#CBB022"/>
<path d="M905.697 421.286C906.992 420.808 908.083 420.33 908.901 419.852C907.879 417.941 906.038 414.938 902.766 412.344C899.698 409.955 896.426 408.658 893.563 408.044C895.471 408.112 897.653 408.181 900.039 408.249C900.243 408.249 900.516 408.249 900.721 408.249C902.084 408.249 903.243 408.249 904.129 408.249C904.334 403.198 904.606 398.215 904.811 393.164C903.857 393.096 902.425 392.959 900.721 393.096C898.13 393.301 894.994 393.983 891.858 395.895C888.041 398.215 883.269 402.857 884.36 405.519C884.769 406.474 885.927 407.089 887.836 407.498C886.95 407.498 886.2 407.566 885.791 407.566C882.314 407.839 879.315 408.863 876.793 410.092C882.928 397.601 889.131 381.834 891.245 365.794C894.313 342.928 873.384 306.957 858.045 284.228C849.524 271.6 842.707 263 842.707 263H653.464C636.557 263 622.923 276.719 622.923 293.579V365.725V435.62H630.149H637.716H639.352C639.693 435.62 640.034 435.62 640.375 435.551C639.693 437.94 639.352 440.534 639.352 443.128C639.352 459.031 652.236 471.932 668.12 471.932C684.004 471.932 696.889 459.031 696.889 443.128C696.889 440.466 696.548 437.94 695.866 435.483C696.411 435.551 696.889 435.62 697.434 435.62H699.138H706.637H775.626H776.308H854.228C855.387 435.62 856.614 435.483 857.705 435.21C857.364 436.848 857.159 438.145 857.023 439.101C857.5 439.032 858.114 438.964 858.727 438.896C858.523 440.329 858.386 441.763 858.386 443.196C858.386 459.1 871.271 472 887.155 472C903.038 472 915.923 459.1 915.923 443.196C915.787 434.459 911.833 426.61 905.697 421.286ZM845.093 419.17H777.535V402.038H810.257C812.575 402.038 814.484 400.126 814.484 397.806V393.915C814.484 391.594 812.575 389.683 810.257 389.683H767.378C767.105 389.683 766.832 389.683 766.628 389.751V378.011C766.628 377.261 766.014 376.646 765.264 376.646H759.811C759.061 376.646 758.447 377.261 758.447 378.011V422.514C758.447 423.265 757.834 423.879 757.084 423.879H716.726C715.977 423.879 715.363 423.265 715.363 422.514V379.445C715.363 371.8 709.159 365.657 701.592 365.657H703.092V292.145C703.092 288.186 706.296 284.978 710.25 284.978H842.639C842.639 284.978 866.567 327.434 861.113 363.063C857.636 385.247 850.206 406.406 845.093 419.17Z" stroke="black" stroke-width="3" stroke-miterlimit="10"/>
<path d="M668.053 472C683.941 472 696.821 459.104 696.821 443.196C696.821 427.288 683.941 414.392 668.053 414.392C652.165 414.392 639.285 427.288 639.285 443.196C639.285 459.104 652.165 472 668.053 472Z" fill="#000A18"/>
<path d="M668.051 461.011C677.878 461.011 685.844 453.035 685.844 443.197C685.844 433.358 677.878 425.382 668.051 425.382C658.225 425.382 650.259 433.358 650.259 443.197C650.259 453.035 658.225 461.011 668.051 461.011Z" fill="#525862"/>
<path d="M887.017 472C902.906 472 915.786 459.104 915.786 443.196C915.786 427.288 902.906 414.392 887.017 414.392C871.129 414.392 858.249 427.288 858.249 443.196C858.249 459.104 871.129 472 887.017 472Z" fill="#000A18"/>
<path d="M887.018 461.011C896.845 461.011 904.811 453.035 904.811 443.197C904.811 433.358 896.845 425.382 887.018 425.382C877.192 425.382 869.226 433.358 869.226 443.197C869.226 453.035 877.192 461.011 887.018 461.011Z" fill="#525862"/>
<path d="M846.66 419.17H775.49V433.572H846.66V419.17Z" fill="#CBB022"/>
<path d="M810.257 402.105H767.378C765.06 402.105 763.151 400.194 763.151 397.873V393.983C763.151 391.662 765.06 389.751 767.378 389.751H810.257C812.575 389.751 814.484 391.662 814.484 393.983V397.873C814.484 400.194 812.643 402.105 810.257 402.105Z" fill="#000A18"/>
<path d="M856.886 439.1C858.318 438.964 860.567 438.691 863.022 437.735C869.157 435.414 869.907 432.002 875.361 428.111C882.519 423.06 890.699 422.309 895.199 421.968C896.698 421.832 899.63 422.787 903.379 421.968C905.765 421.49 907.606 420.603 908.833 419.92C907.81 418.009 905.97 415.006 902.697 412.412C895.744 406.883 887.768 407.43 885.586 407.634C876.724 408.385 871.066 413.504 868.475 415.825C859.272 424.221 857.363 435.278 856.886 439.1Z" fill="#CBB022"/>
<path d="M904.811 393.164C904.607 398.215 904.334 403.198 904.129 408.249C903.243 408.249 902.016 408.249 900.721 408.249C900.516 408.249 900.244 408.249 900.039 408.249C891.109 408.044 885.314 407.908 884.292 405.519C883.201 402.925 888.041 398.215 891.791 395.895C894.926 393.983 898.13 393.301 900.653 393.096C902.425 392.959 903.857 393.096 904.811 393.164Z" fill="#FEDC2A"/>
<path d="M904.811 393.164C904.606 398.215 904.333 403.198 904.129 408.249C903.243 408.249 902.015 408.249 900.72 408.249V393.096C902.425 392.959 903.856 393.096 904.811 393.164Z" fill="#525862"/>
<path d="M759.743 382.926H708.41" stroke="#000A18" stroke-width="4.0148" stroke-miterlimit="10"/>
<path d="M771.399 402.788V284.91" stroke="#000A18" stroke-width="4.0148" stroke-miterlimit="10"/>
<path d="M762.469 402.788V284.91" stroke="#000A18" stroke-width="4.0148" stroke-miterlimit="10"/>
<path d="M759.743 395.895H708.41" stroke="#000A18" stroke-width="4.0148" stroke-miterlimit="10"/>
<path d="M622.923 365.794V293.579C622.923 276.651 636.625 263 653.464 263H842.571V284.91H710.182C706.228 284.91 703.024 288.118 703.024 292.077V365.725H622.923V365.794Z" fill="#000A18"/>
<path d="M777.535 402.105V434.322C777.535 435.073 776.922 435.687 776.172 435.687H699.07C694.503 435.687 690.208 433.435 687.617 429.612L685.913 427.087C670.37 423.265 652.714 425.927 652.714 425.927L647.942 431.114C645.283 433.981 641.602 435.619 637.648 435.619H622.923V365.793H701.524C709.159 365.793 715.295 372.004 715.295 379.581V422.65C715.295 423.401 715.908 424.015 716.658 424.015H757.016C757.766 424.015 758.379 423.401 758.379 422.65V378.147C758.379 377.397 758.993 376.782 759.742 376.782H765.196C765.946 376.782 766.56 377.397 766.56 378.147V399.375C766.56 400.126 767.173 400.74 767.923 400.74H776.104C776.922 400.672 777.535 401.354 777.535 402.105Z" fill="#FEDC2A"/>
<path d="M891.109 365.794C887.564 392.004 873.384 417.395 866.022 429.067C863.431 433.162 858.932 435.688 854.024 435.688H775.422V431.592H839.708C839.708 431.592 855.455 398.693 860.909 363.063C866.363 327.434 842.435 284.979 842.435 284.979V263.068C842.435 263.068 849.252 271.669 857.773 284.296C873.248 306.957 894.177 342.86 891.109 365.794Z" fill="#FEDC2A"/>
<path d="M891.109 365.794H879.383C876.111 365.794 873.521 363.064 873.589 359.787C873.998 339.925 857.228 294.739 854.024 286.276C853.751 285.593 854.228 284.774 854.978 284.706L857.91 284.228C873.248 306.957 894.177 342.86 891.109 365.794Z" fill="#000A18"/>
<path d="M706.501 435.619H697.298C693.753 435.619 690.481 433.912 688.504 430.977L687.617 429.681C686.458 427.974 684.618 426.746 682.573 426.336C671.938 424.357 660.962 424.971 655.713 425.517C653.736 425.722 651.964 426.609 650.6 428.042L646.715 432.274C644.806 434.39 642.079 435.619 639.216 435.619H630.013C630.149 431.251 632.467 407.497 667.507 408.043C701.388 408.589 705.887 430.227 706.501 435.619Z" fill="#CBB022"/>
</g>
<defs>
<clipPath id="clip0">
<rect width="1440" height="480" fill="white" transform="translate(0.922852)"/>
</clipPath>
</defs>
</svg>
