<svg width="156" height="169" viewBox="0 0 156 169" fill="none" xmlns="http://www.w3.org/2000/svg">
<path d="M-115.998 1C-88.8505 1 -88.8527 14.8211 -61.638 14.8211C-34.4904 14.8211 -34.4881 1 -7.27332 1C19.8743 1 19.872 14.8211 47.0867 14.8211C74.3015 14.8211 74.3038 1 101.451 1C128.599 1 128.664 14.8211 155.811 14.8211" stroke="#DCE7F7" stroke-width="2" stroke-miterlimit="10"/>
<path d="M-115.998 26.8213C-88.8505 26.8213 -88.8527 40.6424 -61.638 40.6424C-34.4904 40.6424 -34.4881 26.8213 -7.27332 26.8213C19.8743 26.8213 19.872 40.6424 47.0867 40.6424C74.3015 40.6424 74.3038 26.8213 101.451 26.8213C128.599 26.8213 128.664 40.6424 155.811 40.6424" stroke="#DCE7F7" stroke-width="2" stroke-miterlimit="10"/>
<path d="M-115.998 52.6426C-88.8505 52.6426 -88.8527 66.4637 -61.638 66.4637C-34.4904 66.4637 -34.4881 52.6426 -7.27332 52.6426C19.8743 52.6426 19.872 66.4637 47.0867 66.4637C74.3015 66.4637 74.3038 52.6426 101.451 52.6426C128.599 52.6426 128.664 66.4637 155.811 66.4637" stroke="#DCE7F7" stroke-width="2" stroke-miterlimit="10"/>
<path d="M-115.998 78.4629C-88.8505 78.4629 -88.8527 92.284 -61.638 92.284C-34.4904 92.284 -34.4881 78.4629 -7.27332 78.4629C19.8743 78.4629 19.872 92.284 47.0867 92.284C74.3015 92.284 74.3038 78.4629 101.451 78.4629C128.599 78.4629 128.664 92.284 155.811 92.284" stroke="#DCE7F7" stroke-width="2" stroke-miterlimit="10"/>
<path d="M-115.998 104.284C-88.8505 104.284 -88.8527 118.105 -61.638 118.105C-34.4904 118.105 -34.4881 104.284 -7.27332 104.284C19.8743 104.284 19.872 118.105 47.0867 118.105C74.3015 118.105 74.3038 104.284 101.451 104.284C128.599 104.284 128.664 118.105 155.811 118.105" stroke="#DCE7F7" stroke-width="2" stroke-miterlimit="10"/>
<path d="M-115.998 130.105C-88.8505 130.105 -88.8527 143.927 -61.638 143.927C-34.4904 143.927 -34.4881 130.105 -7.27332 130.105C19.8743 130.105 19.872 143.927 47.0867 143.927C74.3015 143.927 74.3038 130.105 101.451 130.105C128.599 130.105 128.664 143.927 155.811 143.927" stroke="#DCE7F7" stroke-width="2" stroke-miterlimit="10"/>
<path d="M-115.998 155.927C-88.8505 155.927 -88.8527 169.748 -61.638 169.748C-34.4904 169.748 -34.4881 155.927 -7.27332 155.927C19.8743 155.927 19.872 169.748 47.0867 169.748C74.3015 169.748 74.3038 155.927 101.451 155.927C128.599 155.927 128.664 169.748 155.811 169.748" stroke="#DCE7F7" stroke-width="2" stroke-miterlimit="10"/>
</svg>
