<svg width="156" height="154" viewBox="0 0 156 154" fill="none" xmlns="http://www.w3.org/2000/svg">
<path d="M0.00195312 9.21094C27.1495 9.21094 27.1473 23.032 54.362 23.032C81.5096 23.032 81.5119 9.21094 108.727 9.21094C135.874 9.21094 135.872 23.032 163.087 23.032C190.302 23.032 190.304 9.21094 217.451 9.21094C244.599 9.21094 244.664 23.032 271.811 23.032" stroke="#DCE7F7" stroke-width="2" stroke-miterlimit="10"/>
<path d="M0.00195312 35.0322C27.1495 35.0322 27.1473 48.8533 54.362 48.8533C81.5096 48.8533 81.5119 35.0322 108.727 35.0322C135.874 35.0322 135.872 48.8533 163.087 48.8533C190.302 48.8533 190.304 35.0322 217.451 35.0322C244.599 35.0322 244.664 48.8533 271.811 48.8533" stroke="#DCE7F7" stroke-width="2" stroke-miterlimit="10"/>
<path d="M0.00195312 60.8535C27.1495 60.8535 27.1473 74.6746 54.362 74.6746C81.5096 74.6746 81.5119 60.8535 108.727 60.8535C135.874 60.8535 135.872 74.6746 163.087 74.6746C190.302 74.6746 190.304 60.8535 217.451 60.8535C244.599 60.8535 244.664 74.6746 271.811 74.6746" stroke="#DCE7F7" stroke-width="2" stroke-miterlimit="10"/>
<path d="M0.00195312 86.6748C27.1495 86.6748 27.1473 100.496 54.362 100.496C81.5096 100.496 81.5119 86.6748 108.727 86.6748C135.874 86.6748 135.872 100.496 163.087 100.496C190.302 100.496 190.304 86.6748 217.451 86.6748C244.599 86.6748 244.664 100.496 271.811 100.496" stroke="#DCE7F7" stroke-width="2" stroke-miterlimit="10"/>
<path d="M0.00195312 112.495C27.1495 112.495 27.1473 126.316 54.362 126.316C81.5096 126.316 81.5119 112.495 108.727 112.495C135.874 112.495 135.872 126.316 163.087 126.316C190.302 126.316 190.304 112.495 217.451 112.495C244.599 112.495 244.664 126.316 271.811 126.316" stroke="#DCE7F7" stroke-width="2" stroke-miterlimit="10"/>
<path d="M0.00195312 138.316C27.1495 138.316 27.1473 152.138 54.362 152.138C81.5096 152.138 81.5119 138.316 108.727 138.316C135.874 138.316 135.872 152.138 163.087 152.138C190.302 152.138 190.304 138.316 217.451 138.316C244.599 138.316 244.664 152.138 271.811 152.138" stroke="#DCE7F7" stroke-width="2" stroke-miterlimit="10"/>
</svg>
