<svg width="1440" height="481" viewBox="0 0 1440 481" fill="none" xmlns="http://www.w3.org/2000/svg">
<g clip-path="url(#clip0)">
<path d="M1440 0.078125H0V480.078H1440V0.078125Z" fill="#F5B133"/>
<path d="M0 268.647C20.3986 274.431 44.2969 279.189 82.9942 279.189C183.987 279.189 183.987 247.189 285.08 247.189C386.073 247.189 386.073 279.189 487.066 279.189C588.059 279.189 588.059 247.189 689.152 247.189C790.145 247.189 790.145 279.189 891.238 279.189C992.231 279.189 992.231 247.189 1093.32 247.189C1194.32 247.189 1194.32 279.189 1295.41 279.189C1372.5 279.189 1390.8 260.531 1440 251.761" stroke="white" stroke-width="1.0091" stroke-miterlimit="10"/>
<path d="M0 222.425C20.3986 228.209 44.2969 232.967 82.9942 232.967C183.987 232.967 183.987 200.967 285.08 200.967C386.073 200.967 386.073 232.967 487.066 232.967C588.059 232.967 588.059 200.967 689.152 200.967C790.145 200.967 790.145 232.967 891.238 232.967C992.231 232.967 992.231 200.967 1093.32 200.967C1194.32 200.967 1194.32 232.967 1295.41 232.967C1372.5 232.967 1390.8 214.308 1440 205.538" stroke="white" stroke-width="1.0091" stroke-miterlimit="10"/>
<path d="M0 176.203C20.3986 181.987 44.2969 186.745 82.9942 186.745C183.987 186.745 183.987 154.745 285.08 154.745C386.073 154.745 386.073 186.745 487.066 186.745C588.059 186.745 588.059 154.745 689.152 154.745C790.145 154.745 790.145 186.745 891.238 186.745C992.231 186.745 992.231 154.745 1093.32 154.745C1194.32 154.745 1194.32 186.745 1295.41 186.745C1372.5 186.745 1390.8 168.086 1440 159.317" stroke="white" stroke-width="1.0091" stroke-miterlimit="10"/>
<path d="M0 129.98C20.3986 135.764 44.2969 140.522 82.9942 140.522C183.987 140.522 183.987 108.522 285.08 108.522C386.073 108.522 386.073 140.522 487.066 140.522C588.059 140.522 588.059 108.522 689.152 108.522C790.145 108.522 790.145 140.522 891.238 140.522C992.231 140.522 992.231 108.522 1093.32 108.522C1194.32 108.522 1194.32 140.522 1295.41 140.522C1372.5 140.522 1390.8 121.864 1440 113.094" stroke="white" stroke-width="1.0091" stroke-miterlimit="10"/>
<path d="M0 83.7585C20.3986 89.5428 44.2969 94.3008 82.9942 94.3008C183.987 94.3008 183.987 62.3008 285.08 62.3008C386.073 62.3008 386.073 94.3008 487.066 94.3008C588.059 94.3008 588.059 62.3008 689.152 62.3008C790.145 62.3008 790.145 94.3008 891.238 94.3008C992.231 94.3008 992.231 62.3008 1093.32 62.3008C1194.32 62.3008 1194.32 94.3008 1295.41 94.3008C1372.5 94.3008 1390.8 75.6419 1440 66.8722" stroke="white" stroke-width="1.0091" stroke-miterlimit="10"/>
<path d="M0 37.5359C20.3986 43.3201 44.2969 48.0781 82.9942 48.0781C183.987 48.0781 183.987 16.0781 285.08 16.0781C386.073 16.0781 386.073 48.0781 487.066 48.0781C588.059 48.0781 588.059 16.0781 689.152 16.0781C790.145 16.0781 790.145 48.0781 891.238 48.0781C992.231 48.0781 992.231 16.0781 1093.32 16.0781C1194.32 16.0781 1194.32 48.0781 1295.41 48.0781C1372.5 48.0781 1390.8 29.4192 1440 20.6495" stroke="white" stroke-width="1.0091" stroke-miterlimit="10"/>
<path d="M0 314.869C20.3986 320.653 44.2969 325.411 82.9942 325.411C183.987 325.411 183.987 293.411 285.08 293.411C386.073 293.411 386.073 325.411 487.066 325.411C588.059 325.411 588.059 293.411 689.152 293.411C790.145 293.411 790.145 325.411 891.238 325.411C992.231 325.411 992.231 293.411 1093.32 293.411C1194.32 293.411 1194.32 325.411 1295.41 325.411C1372.5 325.411 1390.8 306.752 1440 297.983" stroke="white" stroke-width="1.0091" stroke-miterlimit="10"/>
<path d="M0 361.092C20.3986 366.876 44.2969 371.634 82.9942 371.634C183.987 371.634 183.987 339.634 285.08 339.634C386.073 339.634 386.073 371.634 487.066 371.634C588.059 371.634 588.059 339.634 689.152 339.634C790.145 339.634 790.145 371.634 891.238 371.634C992.231 371.634 992.231 339.634 1093.32 339.634C1194.32 339.634 1194.32 371.634 1295.41 371.634C1372.5 371.634 1390.8 352.975 1440 344.205" stroke="white" stroke-width="1.0091" stroke-miterlimit="10"/>
<path d="M0 407.313C20.3986 413.097 44.2969 417.855 82.9942 417.855C183.987 417.855 183.987 385.855 285.08 385.855C386.073 385.855 386.073 417.855 487.066 417.855C588.059 417.855 588.059 385.855 689.152 385.855C790.145 385.855 790.145 417.855 891.238 417.855C992.231 417.855 992.231 385.855 1093.32 385.855C1194.32 385.855 1194.32 417.855 1295.41 417.855C1372.5 417.855 1390.8 399.197 1440 390.427" stroke="white" stroke-width="1.0091" stroke-miterlimit="10"/>
<path d="M0 453.536C20.3986 459.32 44.2969 464.078 82.9942 464.078C183.987 464.078 183.987 432.078 285.08 432.078C386.073 432.078 386.073 464.078 487.066 464.078C588.059 464.078 588.059 432.078 689.152 432.078C790.145 432.078 790.145 464.078 891.238 464.078C992.231 464.078 992.231 432.078 1093.32 432.078C1194.32 432.078 1194.32 464.078 1295.41 464.078C1372.5 464.078 1390.8 445.419 1440 436.65" stroke="white" stroke-width="1.0091" stroke-miterlimit="10"/>
<circle cx="166" cy="180.078" r="85" fill="#FEDC2A"/>
<path d="M1143 255.831V628.249C1143 628.249 1258.06 703.978 1497.78 675.792C1737.51 647.605 1484.55 239.078 1484.55 239.078L1143 255.831Z" fill="#8C502D" stroke="black" stroke-width="3.9115" stroke-miterlimit="10"/>
<path d="M1315.15 62.5196C1268.73 81.2757 1238.62 107.037 1213.26 128.844C1160.96 173.813 1095.52 250.419 1112.84 276.181C1119.41 285.898 1135.6 285.333 1146.8 284.994C1225.03 282.96 1303.04 296.632 1381.27 295.954C1512.59 294.937 1520.52 308.721 1545.42 290.869C1601.69 250.419 1617.77 138.222 1569.08 77.2081C1498.21 -11.3747 1329.42 56.7572 1315.15 62.5196Z" fill="#6D3D25" stroke="black" stroke-width="3.9115" stroke-miterlimit="10"/>
<path d="M663.66 335.752V306.287C663.66 304.63 665.003 303.287 666.66 303.287H721C722.657 303.287 724 304.63 724 306.287V390.212C724 391.869 722.657 393.212 721 393.212H666.66C665.003 393.212 663.66 391.869 663.66 390.212V335.752Z" fill="#1B1111" stroke="black" stroke-width="3" stroke-miterlimit="10"/>
<path d="M669.079 337.997V314.364C669.079 312.707 670.422 311.364 672.079 311.364H715.579C717.236 311.364 718.579 312.707 718.579 314.364V382.134C718.579 383.791 717.236 385.134 715.579 385.134H672.079C670.422 385.134 669.079 383.791 669.079 382.134V337.997Z" fill="#714747" stroke="black" stroke-width="3" stroke-miterlimit="10"/>
<path d="M570.191 142.081C570.6 144.375 571.186 147.668 571.713 151.609C573.002 160.96 574.817 174.134 572.943 188.837C572.065 195.836 570.015 206.07 564.627 217.95C563.28 220.89 560.235 222.714 557.014 222.361C554.964 222.126 552.68 221.714 550.279 221.067C548.346 220.538 546.589 219.891 545.008 219.185C542.782 223.772 542.197 227.713 542.08 230.065C541.318 240.946 547.116 249.474 549.81 253.59C551.216 255.649 552.446 257.237 553.324 258.178C548.463 258.119 542.314 257.59 535.403 255.825C524.862 253.12 516.839 248.591 511.685 245.063C512.68 241.534 513.559 237.652 514.262 233.359C515.96 222.596 515.609 213.127 514.672 205.599L512.856 203.364L502.607 160.784L570.191 142.081Z" fill="#F3C677" stroke="black" stroke-width="3" stroke-miterlimit="10"/>
<path d="M524.979 184.132C525.096 182.956 525.389 181.192 526.385 179.486C527.614 177.31 529.898 175.193 537.336 172.723C544.247 170.429 545.242 171.311 549.693 169.664C555.374 167.606 558.888 164.254 562.05 161.254C565.271 158.196 567.79 154.961 569.722 151.962C573.236 146.374 572.709 139.199 568.375 134.259C567.907 133.73 567.438 133.259 566.97 132.789C555.023 120.908 537.863 121.908 531.597 122.261C523.632 122.732 508.405 123.614 497.63 135.788C484.921 150.138 487.967 169.311 488.786 174.311C489.431 178.31 490.485 184.603 495.053 191.131C501.495 200.365 510.631 203.952 514.379 205.129C513.793 203.129 513.325 200.482 513.208 197.424C513.091 192.778 514.028 188.955 514.847 186.426C513.852 186.014 510.572 184.426 509.05 180.839C507.586 177.545 507.527 172.37 510.689 170.076C513.091 168.312 516.253 169.194 516.956 169.37C520.47 170.311 522.168 173.193 522.519 173.781C522.285 174.193 520.88 176.781 521.817 179.839C522.519 182.486 524.452 183.779 524.979 184.132Z" fill="#1B1111" stroke="black" stroke-width="3" stroke-miterlimit="10"/>
<path d="M497.395 138.318C496.048 136.26 492.183 131.084 485.389 129.202C471.744 125.379 458.391 137.024 456.634 150.257C455.639 158.02 456.224 168.607 461.612 174.782C466.532 180.428 473.325 181.134 474.262 181.193C482.754 181.899 488.845 176.429 490.66 174.782C499.269 166.96 501.612 152.727 497.395 138.318Z" fill="#1B1111" stroke="black" stroke-width="3" stroke-miterlimit="10"/>
<path d="M497.511 373.038C491.713 371.568 486.208 369.921 480.996 368.216C478.946 354.512 478.185 342.985 477.892 334.575C476.955 308.932 479.708 291.524 481.582 282.584C481.816 281.584 482.167 280.643 482.695 279.761C486.208 273.939 501.084 253.648 528.902 272.233C548.579 285.348 521.523 335.81 497.511 373.038Z" fill="#CE1515" stroke="black" stroke-width="3" stroke-miterlimit="10"/>
<path d="M582.899 631.288C470.749 676.162 414 637.816 414 637.816L452.652 487.373L531.773 400.447L543.427 398.036L544.188 397.859L554.554 395.742L582.899 631.288Z" fill="#CE1515" stroke="black" stroke-width="3" stroke-miterlimit="10"/>
<path d="M572.71 297.466C570.192 274 556.605 254.533 534.292 246.358C521.701 241.712 507.645 241.182 496.576 249.71C487.675 256.591 482.462 267.413 479.183 277.999C476.489 286.762 474.966 295.878 474.264 304.994C473.561 314.228 473.385 323.462 472.917 332.695C471.57 361.396 471.335 370.336 470.105 389.391C469.403 400.33 468.7 409.211 468.231 414.916L452.653 487.373C497.923 463.26 526.151 430.384 543.721 398.742C543.896 398.448 544.013 398.213 544.189 397.919C546.122 394.449 547.937 390.92 549.577 387.509C549.811 386.98 550.046 386.509 550.28 385.98C551.1 384.274 551.861 382.569 552.622 380.922C556.78 371.688 560.06 362.749 562.637 354.397C572.768 321.932 572.768 297.878 572.768 297.878C572.768 297.701 572.769 297.584 572.71 297.466ZM480.823 286.821C481.701 281.94 483.868 277.47 487.265 273.823C494.117 266.413 507.821 258.062 528.962 272.177C542.725 281.41 533.589 308.876 518.597 337.341C517.894 338.635 517.191 339.988 516.488 341.282C510.573 352.162 503.956 363.043 497.514 372.982C491.716 371.512 486.211 369.865 480.998 368.159C478.949 354.456 478.187 342.929 477.894 334.518C477.133 312.522 479.007 296.525 480.823 286.821Z" fill="#F29D00" stroke="black" stroke-width="3" stroke-miterlimit="10"/>
<path d="M480.998 368.216V395.799L497.513 373.038L480.998 368.216Z" fill="#F3C677" stroke="black" stroke-width="3" stroke-miterlimit="10"/>
<path d="M552.446 314.051C551.861 315.344 551.158 316.638 550.338 317.991C549.167 319.932 547.702 321.932 545.946 323.872C535.99 334.812 522.344 337.223 514.907 337.752C513.15 337.87 511.744 337.87 510.807 337.87C508.113 333.106 504.482 326.401 500.324 318.226C491.071 299.877 490.31 295.466 490.31 291.349C490.31 288.526 490.427 276.763 499.387 269.882C507.996 263.236 520.529 264.412 528.728 269.882C533.061 272.823 535.521 276.528 536.868 278.998C542.022 290.643 547.234 302.347 552.446 314.051Z" fill="#CE1515" stroke="black" stroke-width="3" stroke-miterlimit="10"/>
<path d="M679.003 371.274C668.11 379.038 652.532 372.745 648.316 371.039C645.446 369.863 643.22 368.628 641.815 367.746C627.057 373.451 614.348 377.626 604.568 380.567C578.448 388.507 567.614 389.507 557.131 388.507C556.253 388.448 555.374 388.33 554.554 388.213C552.739 387.977 551.099 387.742 549.576 387.448C547.585 387.095 545.77 386.683 544.306 386.272C543.837 386.154 543.368 386.037 542.959 385.919C538.449 379.802 533.764 372.98 529.255 365.334C524.218 356.924 520.06 348.808 516.546 341.221C516.019 340.045 515.492 338.81 514.965 337.633C516.078 337.575 517.307 337.457 518.713 337.222C526.443 336.163 537.629 333.046 546.062 323.695C547.819 321.754 549.283 319.754 550.455 317.813C551.567 320.048 552.68 322.342 553.734 324.871C558.361 335.751 560.469 345.985 561.406 354.336C561.875 354.336 562.343 354.278 562.753 354.278C566.677 354.042 570.659 353.866 574.642 353.631C595.959 352.631 616.691 352.396 636.778 352.69C639.297 350.69 641.991 348.631 644.919 346.632C651.478 342.044 657.92 338.457 663.776 335.634C663.132 340.339 664.186 342.633 665.416 343.809C669.047 347.396 675.489 342.985 681.697 346.867C684.625 348.69 686.675 351.807 687.261 354.807C688.491 361.453 683.454 368.04 679.003 371.274Z" fill="#F3C677" stroke="black" stroke-width="3" stroke-miterlimit="10"/>
<path d="M554.555 388.271V395.799L544.189 397.917C546.122 394.447 547.938 390.918 549.577 387.507C551.1 387.801 552.74 388.036 554.555 388.271Z" fill="#F3C677" stroke="black" stroke-width="3" stroke-miterlimit="10"/>
<path d="M825.41 153.063C825.02 155.241 824.462 158.367 823.961 162.107C822.735 170.983 821.008 183.487 822.791 197.442C823.627 204.085 825.577 213.743 830.591 224.907C831.928 227.866 834.993 229.596 838.224 229.206C840.118 228.982 842.124 228.592 844.297 227.978C846.135 227.475 847.807 226.861 849.311 226.191C851.428 230.545 851.985 234.285 852.097 236.518C852.821 246.846 847.305 254.94 844.743 258.847C843.405 260.801 842.235 262.308 841.4 263.202C846.024 263.146 851.874 262.643 858.448 260.969C868.477 258.401 876.11 254.103 881.013 250.753C880.066 247.404 879.23 243.719 878.561 239.644C876.946 229.429 877.28 220.441 878.171 213.296L879.898 211.175L889.649 170.759L825.41 153.063Z" fill="#F3C677" stroke="black" stroke-width="3" stroke-miterlimit="10"/>
<path d="M868.421 192.977C868.31 191.861 868.031 190.186 867.084 188.567C865.914 186.502 863.741 184.492 856.666 182.148C850.091 179.97 849.144 180.808 844.91 179.245C839.506 177.291 836.163 174.109 833.154 171.262C830.09 168.359 827.694 165.289 825.856 162.442C822.513 157.139 823.014 150.329 827.137 145.64C827.583 145.137 828.028 144.691 828.474 144.244C839.84 132.968 856.164 133.917 862.126 134.252C869.703 134.698 884.189 135.536 894.44 147.091C906.53 160.712 903.633 178.91 902.853 183.655C902.24 187.451 901.237 193.424 896.892 199.62C890.763 208.384 882.072 211.789 878.506 212.906C879.063 211.008 879.509 208.496 879.62 205.593C879.732 201.183 878.84 197.555 878.06 195.154C879.007 194.764 882.127 193.256 883.576 189.851C884.969 186.725 885.024 181.813 882.016 179.636C879.732 177.961 876.723 178.798 876.054 178.966C872.712 179.859 871.096 182.594 870.762 183.152C870.984 183.543 872.322 185.999 871.43 188.902C870.762 191.414 868.923 192.642 868.421 192.977Z" fill="#1B1111" stroke="black" stroke-width="3" stroke-miterlimit="10"/>
<path d="M894.661 149.492C895.942 147.538 899.619 142.626 906.082 140.839C919.064 137.211 931.767 148.264 933.438 160.824C934.385 168.193 933.884 178.185 928.758 184.046C924.078 189.405 917.615 190.075 916.724 190.131C908.645 190.801 902.851 185.609 901.124 184.046C892.878 176.678 890.649 163.168 894.661 149.492Z" fill="#1B1111" stroke="black" stroke-width="3" stroke-miterlimit="10"/>
<path d="M894.551 372.28C900.067 370.884 905.304 369.321 910.263 367.702C912.213 354.696 912.937 343.754 913.216 335.772C914.107 311.433 911.489 294.91 909.706 286.425C909.483 285.476 909.149 284.582 908.647 283.745C905.304 278.219 891.153 258.96 864.688 276.6C845.968 289.048 871.709 336.944 894.551 372.28Z" fill="#6897DC" stroke="black" stroke-width="3" stroke-miterlimit="10"/>
<path d="M813.319 617.396C920.013 659.989 974 623.592 974 623.592L937.229 480.798L862.014 398.292L850.927 396.003L850.202 395.836L840.341 393.826L813.319 617.396Z" fill="#6897DC" stroke="black" stroke-width="3" stroke-miterlimit="10"/>
<path d="M822.957 300.546C825.353 278.273 838.279 259.796 859.506 252.037C871.484 247.627 884.856 247.124 895.386 255.218C903.91 261.75 908.869 272.021 911.989 282.069C914.552 290.387 916 299.039 916.669 307.692C917.338 316.456 917.505 325.22 917.95 333.984C919.232 361.226 919.455 369.711 920.625 387.797C921.293 398.18 921.962 406.609 922.408 412.024L937.228 480.798C894.16 457.911 867.306 426.706 850.591 396.673C850.424 396.394 850.313 396.171 850.146 395.892C848.307 392.598 846.58 389.249 845.02 386.011C844.797 385.509 844.574 385.062 844.351 384.56C843.571 382.941 842.847 381.322 842.123 379.759C838.167 370.995 835.047 362.51 832.596 354.583C822.957 323.769 822.957 300.937 822.957 300.937C822.957 300.77 822.957 300.658 822.957 300.546ZM910.429 290.443C909.593 285.809 907.532 281.567 904.3 278.106C897.782 271.072 884.744 263.145 864.632 276.543C851.539 285.307 860.23 311.376 874.493 338.394C875.162 339.622 875.83 340.906 876.499 342.134C882.126 352.462 888.422 362.789 894.55 372.223C900.066 370.827 905.303 369.264 910.262 367.645C912.212 354.639 912.936 343.697 913.215 335.715C913.939 314.837 912.1 299.653 910.429 290.443Z" fill="#8C502D" stroke="black" stroke-width="3" stroke-miterlimit="10"/>
<path d="M910.262 367.701V393.882L894.55 372.279L910.262 367.701Z" fill="#F3C677" stroke="black" stroke-width="3" stroke-miterlimit="10"/>
<path d="M842.29 316.29C842.847 317.518 843.516 318.746 844.296 320.03C845.41 321.872 846.803 323.77 848.474 325.613C857.946 335.996 870.927 338.284 878.003 338.787C879.675 338.898 881.012 338.898 881.903 338.898C884.466 334.377 887.92 328.013 891.876 320.254C900.679 302.837 901.403 298.65 901.403 294.743C901.403 292.063 901.292 280.899 892.767 274.367C884.577 268.059 872.654 269.176 864.854 274.367C860.732 277.158 858.392 280.675 857.11 283.02C852.207 294.073 847.249 305.181 842.29 316.29Z" fill="#2C6DCD" stroke="black" stroke-width="3" stroke-miterlimit="10"/>
<path d="M878.029 338.787C877.528 339.903 877.026 341.019 876.525 342.192C873.182 349.393 869.226 357.096 864.435 365.079C860.089 372.336 855.688 378.811 851.398 384.617C851.008 384.729 850.562 384.84 850.116 384.952C848.723 385.287 846.996 385.678 845.102 386.068C843.653 386.347 842.038 386.571 840.366 386.794C839.586 386.906 838.75 386.961 837.915 387.073C827.886 388.022 817.579 387.073 792.786 379.537C783.537 376.746 771.391 372.783 757.351 367.312C756.014 368.149 753.841 369.322 751.167 370.438C747.156 372.057 732.28 378.03 721.973 370.661C717.683 367.591 712.891 361.339 714.228 355.143C714.841 352.296 716.735 349.337 719.521 347.606C725.483 343.922 731.556 348.165 735.01 344.704C735.121 344.592 735.288 344.425 735.4 344.257C730.887 343.029 723.254 340.461 724.368 337.391C724.591 336.833 724.981 336.386 725.538 336.051C726.151 335.716 726.82 335.549 727.488 335.493C728.268 335.381 729.104 335.437 729.94 335.493C730.776 335.549 731.667 335.716 732.503 335.884C733.283 336.051 734.063 336.219 734.843 336.442C735.177 336.554 735.456 336.609 735.79 336.721C736.068 336.833 736.403 336.889 736.681 337C736.96 337.112 737.238 337.279 737.573 337.391C742.866 340.015 748.66 343.252 754.566 347.383C757.351 349.281 759.914 351.235 762.31 353.133C781.42 352.854 801.143 353.077 821.423 354.026C825.212 354.194 829 354.417 832.733 354.64C833.179 354.64 833.625 354.696 834.015 354.696C834.906 346.769 836.912 337.112 841.313 326.785C842.316 324.44 843.375 322.207 844.433 320.086C845.548 321.928 846.94 323.826 848.612 325.668C856.635 334.488 867.276 337.503 874.631 338.507C875.745 338.563 876.971 338.675 878.029 338.787Z" fill="#F3C677" stroke="black" stroke-width="3" stroke-miterlimit="10"/>
<path d="M736.545 336.943H736.489" stroke="black" stroke-width="3" stroke-miterlimit="10"/>
<path d="M840.285 386.737V393.883L850.146 395.892C848.308 392.599 846.58 389.249 845.02 386.012C843.572 386.291 842.012 386.514 840.285 386.737Z" fill="#F3C677" stroke="black" stroke-width="3" stroke-miterlimit="10"/>
</g>
<defs>
<clipPath id="clip0">
<rect width="1440" height="480" fill="white" transform="translate(0 0.078125)"/>
</clipPath>
</defs>
</svg>
