<svg width="360" height="144" viewBox="0 0 360 144" fill="none" xmlns="http://www.w3.org/2000/svg">
<g clip-path="url(#clip0)">
<path d="M432 0.417969H0V144.418H432V0.417969Z" fill="#F5B133"/>
<path d="M0 88.8735C6.11958 90.6811 13.2891 92.168 24.8983 92.168C55.1962 92.168 55.1962 82.168 85.5241 82.168C115.822 82.168 115.822 92.168 146.12 92.168C176.418 92.168 176.418 82.168 206.746 82.168C237.044 82.168 237.044 92.168 267.371 92.168C297.669 92.168 297.669 82.168 327.997 82.168C358.295 82.168 358.295 92.168 388.623 92.168C411.751 92.168 417.241 86.3371 432 83.5965" stroke="white" stroke-width="1.0091" stroke-miterlimit="10"/>
<path d="M0 74.1235C6.11958 75.9311 13.2891 77.418 24.8983 77.418C55.1962 77.418 55.1962 67.418 85.5241 67.418C115.822 67.418 115.822 77.418 146.12 77.418C176.418 77.418 176.418 67.418 206.746 67.418C237.044 67.418 237.044 77.418 267.371 77.418C297.669 77.418 297.669 67.418 327.997 67.418C358.295 67.418 358.295 77.418 388.623 77.418C411.751 77.418 417.241 71.5871 432 68.8465" stroke="white" stroke-width="1.0091" stroke-miterlimit="10"/>
<path d="M0 59.3735C6.11957 61.1811 13.2891 62.668 24.8983 62.668C55.1962 62.668 55.1962 52.668 85.5241 52.668C115.822 52.668 115.822 62.668 146.12 62.668C176.418 62.668 176.418 52.668 206.746 52.668C237.044 52.668 237.044 62.668 267.371 62.668C297.669 62.668 297.669 52.668 327.997 52.668C358.295 52.668 358.295 62.668 388.623 62.668C411.751 62.668 417.241 56.8371 432 54.0965" stroke="white" stroke-width="1.0091" stroke-miterlimit="10"/>
<path d="M0 44.6235C6.11958 46.4311 13.2891 47.918 24.8983 47.918C55.1962 47.918 55.1962 37.918 85.5241 37.918C115.822 37.918 115.822 47.918 146.12 47.918C176.418 47.918 176.418 37.918 206.746 37.918C237.044 37.918 237.044 47.918 267.371 47.918C297.669 47.918 297.669 37.918 327.997 37.918C358.295 37.918 358.295 47.918 388.623 47.918C411.751 47.918 417.241 42.0871 432 39.3465" stroke="white" stroke-width="1.0091" stroke-miterlimit="10"/>
<path d="M0 29.8735C6.11958 31.6811 13.2891 33.168 24.8983 33.168C55.1962 33.168 55.1962 23.168 85.5241 23.168C115.822 23.168 115.822 33.168 146.12 33.168C176.418 33.168 176.418 23.168 206.746 23.168C237.044 23.168 237.044 33.168 267.371 33.168C297.669 33.168 297.669 23.168 327.997 23.168C358.295 23.168 358.295 33.168 388.623 33.168C411.751 33.168 417.241 27.3371 432 24.5965" stroke="white" stroke-width="1.0091" stroke-miterlimit="10"/>
<path d="M0 15.1235C6.11958 16.9311 13.2891 18.418 24.8983 18.418C55.1962 18.418 55.1962 8.41797 85.5241 8.41797C115.822 8.41797 115.822 18.418 146.12 18.418C176.418 18.418 176.418 8.41797 206.746 8.41797C237.044 8.41797 237.044 18.418 267.371 18.418C297.669 18.418 297.669 8.41797 327.997 8.41797C358.295 8.41797 358.295 18.418 388.623 18.418C411.751 18.418 417.241 12.5871 432 9.84654" stroke="white" stroke-width="1.0091" stroke-miterlimit="10"/>
<path d="M0 103.624C6.11958 105.431 13.2891 106.918 24.8983 106.918C55.1962 106.918 55.1962 96.918 85.5241 96.918C115.822 96.918 115.822 106.918 146.12 106.918C176.418 106.918 176.418 96.918 206.746 96.918C237.044 96.918 237.044 106.918 267.371 106.918C297.669 106.918 297.669 96.918 327.997 96.918C358.295 96.918 358.295 106.918 388.623 106.918C411.751 106.918 417.241 101.087 432 98.3465" stroke="white" stroke-width="1.0091" stroke-miterlimit="10"/>
<path d="M0 118.374C6.11958 120.181 13.2891 121.668 24.8983 121.668C55.1962 121.668 55.1962 111.668 85.5241 111.668C115.822 111.668 115.822 121.668 146.12 121.668C176.418 121.668 176.418 111.668 206.746 111.668C237.044 111.668 237.044 121.668 267.371 121.668C297.669 121.668 297.669 111.668 327.997 111.668C358.295 111.668 358.295 121.668 388.623 121.668C411.751 121.668 417.241 115.837 432 113.097" stroke="white" stroke-width="1.0091" stroke-miterlimit="10"/>
<path d="M0 133.124C6.11958 134.931 13.2891 136.418 24.8983 136.418C55.1962 136.418 55.1962 126.418 85.5241 126.418C115.822 126.418 115.822 136.418 146.12 136.418C176.418 136.418 176.418 126.418 206.746 126.418C237.044 126.418 237.044 136.418 267.371 136.418C297.669 136.418 297.669 126.418 327.997 126.418C358.295 126.418 358.295 136.418 388.623 136.418C411.751 136.418 417.241 130.587 432 127.847" stroke="white" stroke-width="1.0091" stroke-miterlimit="10"/>
<circle cx="49" cy="53" r="25" fill="#FEDC2A"/>
<path d="M270.812 76.7814V187.934C270.812 187.934 305.024 210.536 376.308 202.123C447.591 193.711 372.372 71.7812 372.372 71.7812L270.812 76.7814Z" fill="#8C502D" stroke="black" stroke-miterlimit="10"/>
<path d="M322.002 19.0856C308.2 24.6836 299.245 32.3724 291.704 38.8808C276.152 52.3025 256.694 75.1664 261.845 82.8552C263.797 85.7554 268.611 85.5867 271.944 85.4856C295.206 84.8786 318.4 88.959 341.662 88.7567C380.712 88.4532 383.068 92.5673 390.474 87.2392C407.205 75.1664 411.986 41.6798 397.51 23.4696C376.436 -2.96901 326.244 17.3658 322.002 19.0856Z" fill="#6D3D25" stroke="black" stroke-miterlimit="10"/>
<path d="M153.093 99.5789V92.9189C153.093 91.2621 154.436 89.9189 156.093 89.9189H168C169.657 89.9189 171 91.2621 171 92.9189V113.676C171 115.333 169.657 116.676 168 116.676H156.093C154.436 116.676 153.093 115.333 153.093 113.676V99.5789Z" fill="#1B1111" stroke="black" stroke-miterlimit="10"/>
<path d="M154.701 100.247V95.3223C154.701 93.6654 156.044 92.3223 157.701 92.3223H166.391C168.048 92.3223 169.391 93.6654 169.391 95.3223V111.273C169.391 112.929 168.048 114.273 166.391 114.273H157.701C156.044 114.273 154.701 112.929 154.701 111.273V100.247Z" fill="#714747" stroke="black" stroke-miterlimit="10"/>
<path d="M125.353 41.9521C125.474 42.6346 125.648 43.6146 125.805 44.7871C126.187 47.5696 126.726 51.4896 126.17 55.8646C125.909 57.9471 125.301 60.9921 123.702 64.527C123.302 65.402 122.398 65.9445 121.442 65.8395C120.834 65.7695 120.156 65.647 119.443 65.4545C118.87 65.297 118.348 65.1045 117.879 64.8945C117.219 66.2595 117.045 67.432 117.01 68.132C116.784 71.3695 118.505 73.907 119.304 75.132C119.722 75.7445 120.086 76.217 120.347 76.497C118.905 76.4795 117.08 76.322 115.029 75.797C111.9 74.992 109.519 73.6445 107.99 72.5945C108.285 71.5445 108.546 70.3895 108.755 69.112C109.259 65.9095 109.154 63.0921 108.876 60.8521L108.337 60.1871L105.296 47.5171L125.353 41.9521Z" fill="#F3C677" stroke="black" stroke-miterlimit="10"/>
<path d="M111.935 54.4643C111.97 54.1143 112.057 53.5893 112.353 53.0818C112.718 52.4344 113.395 51.8044 115.603 51.0694C117.653 50.3869 117.949 50.6494 119.27 50.1594C120.956 49.5469 121.999 48.5494 122.937 47.6569C123.893 46.7469 124.64 45.7844 125.214 44.8919C126.257 43.2294 126.1 41.0944 124.814 39.6244C124.675 39.4669 124.536 39.3269 124.397 39.1869C120.851 35.6519 115.759 35.9494 113.899 36.0544C111.536 36.1944 107.017 36.4569 103.819 40.0794C100.047 44.3494 100.951 50.0544 101.194 51.5419C101.386 52.7318 101.698 54.6043 103.054 56.5468C104.966 59.2943 107.677 60.3618 108.79 60.7118C108.616 60.1168 108.477 59.3293 108.442 58.4193C108.407 57.0368 108.685 55.8993 108.929 55.1468C108.633 55.0243 107.66 54.5518 107.208 53.4843C106.773 52.5044 106.756 50.9644 107.695 50.2819C108.407 49.7569 109.346 50.0194 109.554 50.0719C110.597 50.3519 111.101 51.2094 111.205 51.3844C111.136 51.5069 110.719 52.2769 110.997 53.1868C111.205 53.9743 111.779 54.3593 111.935 54.4643Z" fill="#1B1111" stroke="black" stroke-miterlimit="10"/>
<path d="M103.75 40.8322C103.351 40.2198 102.204 38.6798 100.188 38.1198C96.1379 36.9823 92.1752 40.4473 91.6538 44.3847C91.3584 46.6947 91.5322 49.8447 93.1311 51.6822C94.5911 53.3622 96.6072 53.5722 96.8853 53.5897C99.4054 53.7997 101.213 52.1722 101.752 51.6822C104.307 49.3547 105.002 45.1197 103.75 40.8322Z" fill="#1B1111" stroke="black" stroke-miterlimit="10"/>
<path d="M103.785 110.674C102.064 110.236 100.43 109.746 98.8835 109.239C98.2752 105.161 98.0493 101.731 97.9624 99.2288C97.6843 91.5988 98.5012 86.4188 99.0573 83.7588C99.1269 83.4613 99.2311 83.1813 99.3876 82.9188C100.43 81.1863 104.845 75.1489 113.101 80.6788C118.94 84.5813 110.911 99.5963 103.785 110.674Z" fill="#CE1515" stroke="black" stroke-miterlimit="10"/>
<path d="M129.125 187.517C95.8415 200.869 79 189.459 79 189.459L90.471 144.695L113.952 118.83L117.41 118.112L117.636 118.06L120.713 117.43L129.125 187.517Z" fill="#CE1515" stroke="black" stroke-miterlimit="10"/>
<path d="M126.1 88.187C125.353 81.2045 121.321 75.4121 114.699 72.9796C110.962 71.5971 106.791 71.4396 103.506 73.9771C100.864 76.0245 99.3173 79.2445 98.344 82.3945C97.5445 85.002 97.0926 87.7145 96.884 90.427C96.6755 93.1745 96.6233 95.9219 96.4843 98.6694C96.0845 107.209 96.015 109.869 95.65 115.539C95.4415 118.794 95.2329 121.437 95.0939 123.134L90.4707 144.694C103.906 137.519 112.283 127.737 117.497 118.322C117.549 118.234 117.584 118.164 117.636 118.077C118.21 117.044 118.748 115.994 119.235 114.979C119.305 114.822 119.374 114.682 119.444 114.524C119.687 114.017 119.913 113.509 120.139 113.019C121.373 110.272 122.346 107.612 123.111 105.127C126.118 95.4669 126.118 88.3095 126.118 88.3095C126.118 88.257 126.118 88.222 126.1 88.187ZM98.8306 85.0195C99.0913 83.567 99.7344 82.237 100.742 81.152C102.776 78.947 106.843 76.462 113.117 80.662C117.202 83.4095 114.49 91.582 110.041 100.052C109.832 100.437 109.624 100.839 109.415 101.224C107.66 104.462 105.696 107.699 103.784 110.657C102.063 110.219 100.43 109.729 98.8827 109.222C98.2744 105.144 98.0485 101.714 97.9616 99.2119C97.7356 92.667 98.2918 87.907 98.8306 85.0195Z" fill="#F29D00" stroke="black" stroke-miterlimit="10"/>
<path d="M98.8823 109.238V117.446L103.784 110.673L98.8823 109.238Z" fill="#F3C677" stroke="black" stroke-miterlimit="10"/>
<path d="M120.087 93.1215C119.913 93.5065 119.705 93.8915 119.461 94.294C119.114 94.8715 118.679 95.4665 118.158 96.044C115.203 99.299 111.154 100.016 108.946 100.174C108.425 100.209 108.008 100.209 107.73 100.209C106.93 98.7915 105.853 96.7965 104.619 94.364C101.872 88.904 101.646 87.5915 101.646 86.3665C101.646 85.5265 101.681 82.0266 104.34 79.9791C106.895 78.0016 110.615 78.3516 113.048 79.9791C114.334 80.8541 115.064 81.9566 115.464 82.6915C116.993 86.1565 118.54 89.639 120.087 93.1215Z" fill="#CE1515" stroke="black" stroke-miterlimit="10"/>
<path d="M157.645 110.149C154.413 112.459 149.79 110.586 148.538 110.079C147.687 109.729 147.026 109.361 146.609 109.099C142.229 110.796 138.458 112.039 135.555 112.914C127.804 115.276 124.588 115.574 121.477 115.276C121.216 115.259 120.956 115.224 120.712 115.189C120.174 115.119 119.687 115.049 119.235 114.961C118.644 114.856 118.105 114.734 117.671 114.611C117.532 114.576 117.393 114.541 117.271 114.506C115.933 112.686 114.542 110.656 113.204 108.381C111.709 105.879 110.475 103.464 109.433 101.206C109.276 100.856 109.12 100.489 108.963 100.139C109.294 100.121 109.659 100.086 110.076 100.016C112.37 99.7012 115.69 98.7737 118.192 95.9912C118.714 95.4137 119.148 94.8187 119.496 94.2412C119.826 94.9062 120.156 95.5887 120.469 96.3412C121.842 99.5787 122.468 102.624 122.746 105.109C122.885 105.109 123.024 105.091 123.146 105.091C124.31 105.021 125.492 104.969 126.674 104.899C133 104.601 139.153 104.531 145.114 104.619C145.862 104.024 146.661 103.411 147.53 102.816C149.477 101.451 151.389 100.384 153.127 99.5437C152.935 100.944 153.248 101.626 153.613 101.976C154.691 103.044 156.603 101.731 158.445 102.886C159.314 103.429 159.922 104.356 160.096 105.249C160.461 107.226 158.966 109.186 157.645 110.149Z" fill="#F3C677" stroke="black" stroke-miterlimit="10"/>
<path d="M120.713 115.206V117.446L117.637 118.076C118.21 117.043 118.749 115.994 119.236 114.979C119.688 115.066 120.174 115.136 120.713 115.206Z" fill="#F3C677" stroke="black" stroke-miterlimit="10"/>
<path d="M202.423 45.6885C202.305 46.3407 202.138 47.2773 201.988 48.3979C201.62 51.0571 201.102 54.8034 201.637 58.9846C201.888 60.9748 202.473 63.8682 203.977 67.2131C204.378 68.0995 205.297 68.618 206.267 68.5009C206.835 68.434 207.437 68.3169 208.089 68.133C208.64 67.9824 209.142 67.7985 209.593 67.5978C210.228 68.9023 210.395 70.0228 210.429 70.6918C210.646 73.7859 208.991 76.211 208.222 77.3817C207.821 77.9671 207.47 78.4186 207.22 78.6862C208.607 78.6695 210.362 78.519 212.334 78.0172C215.343 77.2479 217.633 75.9601 219.103 74.9566C218.819 73.9531 218.569 72.8493 218.368 71.6284C217.883 68.5678 217.984 65.8751 218.251 63.7344L218.769 63.0988L221.694 50.9902L202.423 45.6885Z" fill="#F3C677" stroke="black" stroke-miterlimit="10"/>
<path d="M215.326 57.6463C215.293 57.3118 215.209 56.8101 214.925 56.3251C214.574 55.7063 213.922 55.1042 211.8 54.4018C209.827 53.7495 209.543 54.0004 208.273 53.5321C206.652 52.9467 205.649 51.9934 204.746 51.1405C203.827 50.2708 203.108 49.3509 202.557 48.498C201.554 46.9091 201.704 44.8687 202.941 43.4638C203.075 43.3133 203.208 43.1795 203.342 43.0457C206.752 39.6673 211.649 39.9517 213.438 40.052C215.711 40.1858 220.057 40.4367 223.132 43.8987C226.759 47.9795 225.89 53.4317 225.656 54.8533C225.472 55.9906 225.171 57.7801 223.867 59.6366C222.029 62.2623 219.421 63.2825 218.352 63.617C218.519 63.0484 218.653 62.2958 218.686 61.4261C218.719 60.1049 218.452 59.0178 218.218 58.2986C218.502 58.1815 219.438 57.73 219.873 56.7098C220.291 55.7732 220.307 54.3014 219.405 53.6491C218.719 53.1474 217.817 53.3983 217.616 53.4485C216.613 53.716 216.129 54.5356 216.028 54.7028C216.095 54.8199 216.496 55.5558 216.229 56.4254C216.028 57.1781 215.477 57.546 215.326 57.6463Z" fill="#1B1111" stroke="black" stroke-miterlimit="10"/>
<path d="M223.199 44.6184C223.583 44.033 224.686 42.5612 226.625 42.0261C230.52 40.939 234.33 44.2504 234.832 48.0135C235.116 50.2211 234.966 53.2149 233.428 54.9709C232.024 56.5765 230.085 56.7772 229.818 56.7939C227.394 56.9946 225.656 55.4392 225.138 54.9709C222.664 52.7633 221.995 48.7159 223.199 44.6184Z" fill="#1B1111" stroke="black" stroke-miterlimit="10"/>
<path d="M223.166 111.366C224.82 110.948 226.391 110.479 227.879 109.994C228.464 106.098 228.681 102.82 228.765 100.428C229.032 93.136 228.247 88.1855 227.712 85.6433C227.645 85.359 227.545 85.0914 227.394 84.8406C226.391 83.1848 222.146 77.4148 214.207 82.6998C208.591 86.4294 216.313 100.779 223.166 111.366Z" fill="#6897DC" stroke="black" stroke-miterlimit="10"/>
<path d="M198.796 184.804C230.804 197.564 247 186.66 247 186.66L235.969 143.878L213.404 119.159L210.078 118.474L209.861 118.423L206.902 117.821L198.796 184.804Z" fill="#6897DC" stroke="black" stroke-miterlimit="10"/>
<path d="M201.688 89.8748C202.406 83.2016 206.284 77.6658 212.652 75.3411C216.246 74.0198 220.257 73.8693 223.416 76.2944C225.973 78.2511 227.461 81.3285 228.397 84.3389C229.166 86.8309 229.6 89.4232 229.801 92.0155C230.002 94.6413 230.052 97.2671 230.186 99.8928C230.57 108.054 230.637 110.597 230.988 116.015C231.188 119.126 231.389 121.652 231.523 123.274L235.969 143.879C223.048 137.022 214.992 127.672 209.978 118.675C209.928 118.591 209.894 118.524 209.844 118.44C209.293 117.454 208.774 116.45 208.306 115.48C208.24 115.33 208.173 115.196 208.106 115.045C207.872 114.56 207.655 114.075 207.437 113.607C206.251 110.981 205.315 108.439 204.579 106.064C201.687 96.8322 201.688 89.9918 201.688 89.9918C201.688 89.9417 201.688 89.9082 201.688 89.8748ZM227.929 86.8476C227.678 85.4595 227.06 84.1884 226.09 83.1515C224.135 81.0442 220.224 78.6693 214.19 82.6832C210.262 85.3089 212.869 93.1194 217.148 101.214C217.349 101.582 217.549 101.967 217.75 102.335C219.438 105.429 221.327 108.523 223.165 111.349C224.82 110.931 226.391 110.463 227.879 109.978C228.464 106.081 228.681 102.803 228.765 100.411C228.982 94.1563 228.43 89.6072 227.929 86.8476Z" fill="#8C502D" stroke="black" stroke-miterlimit="10"/>
<path d="M227.879 109.994V117.838L223.165 111.366L227.879 109.994Z" fill="#F3C677" stroke="black" stroke-miterlimit="10"/>
<path d="M207.486 94.5915C207.653 94.9595 207.854 95.3274 208.088 95.7121C208.422 96.264 208.84 96.8326 209.342 97.3846C212.183 100.495 216.078 101.181 218.2 101.332C218.702 101.365 219.103 101.365 219.37 101.365C220.139 100.01 221.175 98.1037 222.362 95.779C225.003 90.5609 225.22 89.3066 225.22 88.1358C225.22 87.333 225.187 83.9881 222.63 82.0313C220.173 80.1415 216.596 80.4759 214.256 82.0313C213.019 82.8676 212.317 83.9212 211.932 84.6237C210.461 87.9351 208.974 91.2633 207.486 94.5915Z" fill="#2C6DCD" stroke="black" stroke-miterlimit="10"/>
<path d="M218.209 101.331C218.058 101.666 217.908 102 217.757 102.351C216.755 104.509 215.568 106.817 214.13 109.209C212.827 111.383 211.506 113.323 210.219 115.062C210.102 115.096 209.969 115.129 209.835 115.163C209.417 115.263 208.899 115.38 208.331 115.497C207.896 115.581 207.411 115.648 206.91 115.714C206.676 115.748 206.425 115.765 206.174 115.798C203.166 116.082 200.074 115.798 192.636 113.54C189.861 112.704 186.217 111.517 182.005 109.878C181.604 110.128 180.952 110.48 180.15 110.814C178.947 111.299 174.484 113.089 171.392 110.881C170.105 109.961 168.667 108.088 169.068 106.232C169.252 105.379 169.821 104.492 170.656 103.974C172.445 102.87 174.267 104.141 175.303 103.104C175.336 103.071 175.387 103.02 175.42 102.97C174.066 102.602 171.776 101.833 172.111 100.913C172.177 100.746 172.294 100.612 172.461 100.512C172.645 100.411 172.846 100.361 173.047 100.345C173.281 100.311 173.531 100.328 173.782 100.345C174.033 100.361 174.3 100.411 174.551 100.462C174.785 100.512 175.019 100.562 175.253 100.629C175.353 100.662 175.437 100.679 175.537 100.712C175.621 100.746 175.721 100.763 175.804 100.796C175.888 100.83 175.972 100.88 176.072 100.913C177.66 101.699 179.398 102.669 181.17 103.907C182.005 104.476 182.774 105.061 183.493 105.63C189.226 105.546 195.143 105.613 201.227 105.897C202.364 105.947 203.5 106.014 204.62 106.081C204.754 106.081 204.887 106.098 205.004 106.098C205.272 103.723 205.874 100.83 207.194 97.7355C207.495 97.033 207.812 96.3641 208.13 95.7285C208.464 96.2804 208.882 96.8491 209.384 97.401C211.79 100.043 214.983 100.947 217.189 101.248C217.523 101.264 217.891 101.298 218.209 101.331Z" fill="#F3C677" stroke="black" stroke-miterlimit="10"/>
<path d="M175.764 100.779H175.747" stroke="black" stroke-miterlimit="10"/>
<path d="M206.885 115.698V117.839L209.843 118.441C209.292 117.454 208.773 116.45 208.305 115.48C207.871 115.564 207.403 115.631 206.885 115.698Z" fill="#F3C677" stroke="black" stroke-miterlimit="10"/>
</g>
<defs>
<clipPath id="clip0">
<rect width="360" height="144" fill="white"/>
</clipPath>
</defs>
</svg>
