<svg width="360" height="144" viewBox="0 0 360 144" fill="none" xmlns="http://www.w3.org/2000/svg">
<g clip-path="url(#clip0)">
<rect width="360" height="144" fill="white"/>
<path d="M432 0H0V144H432V0Z" fill="#E5C626"/>
<g clip-path="url(#clip1)">
<path d="M442.599 156.028L439.964 161.929L439.803 162.284L434.983 172.989L434.822 173.408L429.744 184.727L429.551 185.146L424.731 195.883L424.57 196.238L420.103 206.202L419.942 206.525L415.7 216.005L415.572 216.327L413.675 220.519H-0.900391V87.0225H384.751L384.366 93.5361L384.334 93.8585L383.755 103.177L383.723 103.5L383.466 107.982L390.311 113.561L390.858 113.98L408.823 128.587L409.305 128.974L420.778 138.293L421.131 138.583L429.905 145.709L430.194 145.967L438.325 152.545L438.646 152.803L442.599 156.028Z" fill="#148AFF" stroke="black" stroke-miterlimit="10"/>
<path d="M0 97.7517C6.12095 99.5633 13.2921 101.054 24.9039 101.054C55.2086 101.054 55.2086 91.0312 85.5433 91.0312C115.848 91.0312 115.848 101.054 146.153 101.054C176.457 101.054 176.457 91.0312 206.792 91.0312C237.097 91.0312 237.097 101.054 267.432 101.054C297.736 101.054 297.736 91.0312 328.071 91.0312C358.376 91.0312 358.376 101.054 388.71 101.054C411.844 101.054 417.335 95.2096 432.097 92.463" stroke="#011D47" stroke-width="0.5" stroke-miterlimit="10"/>
<path d="M0 136.839C6.12095 138.65 13.2921 140.14 24.9039 140.14C55.2086 140.14 55.2086 130.118 85.5433 130.118C115.848 130.118 115.848 140.14 146.153 140.14C176.457 140.14 176.457 130.118 206.792 130.118C237.097 130.118 237.097 140.14 267.432 140.14C297.736 140.14 297.736 130.118 328.071 130.118C358.376 130.118 358.376 140.14 388.71 140.14C411.844 140.14 417.335 134.297 432.097 131.55" stroke="#011D47" stroke-width="0.5" stroke-miterlimit="10"/>
<path d="M0 126.816C6.12095 128.628 13.2921 130.118 24.9039 130.118C55.2086 130.118 55.2086 120.096 85.5433 120.096C115.848 120.096 115.848 130.118 146.153 130.118C176.457 130.118 176.457 120.096 206.792 120.096C237.097 120.096 237.097 130.118 267.432 130.118C297.736 130.118 297.736 120.096 328.071 120.096C358.376 120.096 358.376 130.118 388.71 130.118C411.844 130.118 417.335 124.274 432.097 121.527" stroke="#011D47" stroke-width="0.5" stroke-miterlimit="10"/>
<path d="M0 117.797C6.12095 119.608 13.2921 121.098 24.9039 121.098C55.2086 121.098 55.2086 111.076 85.5433 111.076C115.848 111.076 115.848 121.098 146.153 121.098C176.457 121.098 176.457 111.076 206.792 111.076C237.097 111.076 237.097 121.098 267.432 121.098C297.736 121.098 297.736 111.076 328.071 111.076C358.376 111.076 358.376 121.098 388.71 121.098C411.844 121.098 417.335 115.255 432.097 112.508" stroke="#011D47" stroke-width="0.5" stroke-miterlimit="10"/>
<path d="M0 107.774C6.12095 109.586 13.2921 111.076 24.9039 111.076C55.2086 111.076 55.2086 101.054 85.5433 101.054C115.848 101.054 115.848 111.076 146.153 111.076C176.457 111.076 176.457 101.054 206.792 101.054C237.097 101.054 237.097 111.076 267.432 111.076C297.736 111.076 297.736 101.054 328.071 101.054C358.376 101.054 358.376 111.076 388.71 111.076C411.844 111.076 417.335 105.232 432.097 102.485" stroke="#011D47" stroke-width="0.5" stroke-miterlimit="10"/>
<path d="M288.618 87.6787C288.559 88.0364 288.469 88.394 288.41 88.7815L287.547 93.1033L285.821 93.1927C280.791 94.8618 277.697 97.9615 277.697 97.9615C267.013 101.538 227.107 98.796 222.226 98.4384C220.441 96.3818 219.131 94.2359 218.149 92.3879C217.911 91.911 217.673 91.464 217.465 91.0169L221.036 92.1197L221.691 93.0138C221.691 93.0138 266.269 96.352 277.667 92.5668C277.667 92.5668 280.762 89.467 285.791 87.7979L288.618 87.6787Z" fill="#91825E" stroke="black" stroke-miterlimit="10"/>
<path d="M287.547 93.1025L287.042 95.7254C286.952 96.1725 286.833 96.5897 286.655 97.007L285.821 97.0368C280.792 98.7059 277.697 101.806 277.697 101.806C268.68 104.816 238.922 103.326 226.84 102.581C225.024 101.359 223.477 99.9279 222.197 98.4079C227.078 98.7655 267.014 101.478 277.668 97.931C277.668 97.931 280.762 94.8312 285.792 93.1621L287.547 93.1025Z" fill="#5E4B21" stroke="black" stroke-miterlimit="10"/>
<path d="M286.655 96.9775C286.238 97.9313 285.584 98.7957 284.721 99.4216C280.316 102.7 276.388 104.369 273.68 105.293C269.216 106.813 260.318 105.114 242.701 105.949C238.803 106.128 234.785 106.366 230.203 104.399C228.983 103.863 227.881 103.266 226.87 102.551C238.922 103.296 268.71 104.757 277.698 101.776C277.698 101.776 280.792 98.6764 285.822 97.0073L286.655 96.9775Z" fill="#453000" stroke="black" stroke-miterlimit="10"/>
<path d="M289.065 87.0225V88.5723C289.065 88.5723 288.827 88.6617 288.41 88.8108C286.238 89.5857 279.364 92.1788 278.828 94.4141C278.173 97.0966 231.571 96.8582 222.197 94.4141L219.965 93.7584L219.727 93.0431L218.18 92.3874L217.049 91.9105L217.495 91.0164L221.066 92.1191L221.721 93.0133C221.721 93.0133 266.3 96.3515 277.697 92.5662C277.697 92.5662 280.792 89.4665 285.821 87.7974C286.833 87.4695 287.904 87.2013 289.065 87.0225Z" fill="#917433" stroke="black" stroke-miterlimit="10"/>
</g>
<path d="M69.5 51C78.6127 51 86 43.6127 86 34.5C86 25.3873 78.6127 18 69.5 18C60.3873 18 53 25.3873 53 34.5C53 43.6127 60.3873 51 69.5 51Z" fill="#FEDC2A" stroke="black" stroke-miterlimit="10"/>
<g opacity="0.7" clip-path="url(#clip2)">
<path d="M133.108 6.4668C133.083 6.4668 133.083 6.4668 133.058 6.49148C131.531 6.93572 128.894 7.72549 125.665 7.82421L99.9375 47.7569L133.108 6.4668Z" fill="white"/>
<path d="M86.4327 51.5333L59.2262 33.9609C58.4377 34.8247 57.5751 35.6392 56.6387 36.4536L86.4327 51.5333Z" fill="white"/>
<path d="M140.649 7.97212C140.525 7.72531 140.427 7.45383 140.353 7.20703C139.737 5.47941 137.79 4.66496 136.114 5.38069C135.72 5.55345 135.301 5.72621 134.857 5.87429L102.353 46.3253L140.649 7.97212Z" fill="white"/>
<path d="M92.3465 46.6467L87.0481 13.8219C85.9392 13.8466 84.707 13.7972 83.4009 13.6738L92.3465 46.6467Z" fill="white"/>
<path d="M113.393 4.07347C113.048 3.82667 112.703 3.55518 112.358 3.25902C111.323 2.39521 109.918 2.29649 108.809 2.88882L97.2515 46.5976L113.393 4.07347Z" fill="white"/>
<path d="M107.429 4.19629C106.838 4.9367 106.172 5.70179 105.384 6.49155C104.299 7.57749 103.166 8.46598 102.032 9.23106L96.2656 46.3996L107.429 4.19629Z" fill="white"/>
<path d="M118.444 6.73845C118.222 6.66441 118.001 6.56569 117.754 6.49165C116.892 6.14612 115.635 5.57848 114.206 4.64062L98.1626 46.8686L118.444 6.73845Z" fill="white"/>
<path d="M103.979 53.1871L158.687 44.3515C159.402 42.5005 160.437 40.7235 161.792 39.0699C162.211 38.5517 162.458 37.9347 162.507 37.293L103.979 53.1871Z" fill="white"/>
<path d="M145.503 13.081C144.468 12.5627 143.458 11.8717 142.546 10.8845C141.979 10.2922 141.536 9.65048 141.166 9.00879L101.49 48.9908L145.503 13.081Z" fill="white"/>
<path d="M95.1322 58.5913H95.4279V58.5666L95.7236 58.5173V58.4926L95.9947 58.4186V58.3939L96.2658 58.2705V58.2458L96.5369 58.1224L96.5122 58.0977L96.7833 57.925H96.7586L96.9804 57.7275V57.7028L97.1776 57.5054V57.4807L97.3501 57.2339L97.4979 56.9871L97.4733 56.9624L97.6212 56.6909H97.5965L97.6951 56.4195L97.6705 56.3948L97.769 56.0986H97.7444L97.769 55.8025V55.5063H97.7444L97.7197 55.2101L97.6705 54.914H97.6458L97.5472 54.6178V54.6425L97.424 54.3463L97.3994 54.371L97.2762 54.0995H97.2515L97.079 53.8527L97.0544 53.8774L96.8819 53.6306L96.8572 53.6553L96.6601 53.4331L96.5861 53.5072L96.389 53.2851L96.1179 53.1123V53.137L95.8468 53.0136V53.0383L95.5511 52.9149V52.9395L95.2554 52.8655V52.8902L94.9597 52.8408V52.8655H94.6639L94.3682 52.8902V52.9149L94.0725 52.9642V52.9889L93.7768 53.0629V53.0876L93.5057 53.1863V53.211L93.2593 53.3591V53.3838L93.0128 53.5319V53.5565L92.791 53.754L92.8157 53.7787L92.5939 53.9761L92.6185 54.0008L92.4214 54.2229L92.446 54.2476L92.2735 54.4944L92.2982 54.5191L92.1749 54.7906L92.0764 55.062L92.101 55.0867L92.0271 55.3582L92.0517 55.3829L92.0024 55.6791H92.0271L92.0024 55.9752H92.0271L92.0517 56.2714H92.0764L92.1257 56.5675H92.1503L92.2242 56.8637L92.2489 56.839L92.3474 57.1352L92.3721 57.1105L92.52 57.382H92.5446L92.6925 57.6288L92.7171 57.6041L92.9143 57.8509V57.8262L93.136 58.0484L93.1607 58.0237L93.3825 58.2211L93.4071 58.1964L93.6536 58.3445L93.9246 58.4679L93.9493 58.4432L94.2204 58.5666V58.542L94.5161 58.616V58.5913L94.8118 58.6407V58.616H95.1322V58.5913Z" fill="white"/>
<path d="M159.97 57.9004C159.945 57.8757 159.92 57.8263 159.896 57.8016C159.403 57.0859 158.935 56.2961 158.565 55.4077C158.121 54.3711 157.85 53.3098 157.678 52.1992L104.3 55.1609L159.97 57.9004Z" fill="white"/>
<path d="M154.35 15.5492C153.833 15.1049 153.192 14.8088 152.453 14.7594C151.861 14.71 151.22 14.636 150.58 14.5373C149.397 14.3398 147.967 14.0684 146.538 13.5254L102.18 49.7314L154.35 15.5492Z" fill="white"/>
<path d="M162.409 36.3051C162.236 35.6141 161.842 34.9971 161.251 34.5281C160.61 34.0345 159.945 33.4669 159.304 32.7758C159.008 32.4797 158.54 31.9367 157.998 31.1963L103.659 52.2732L162.409 36.3051Z" fill="white"/>
<path d="M154.966 23.6692C154.868 22.8547 154.843 21.9909 154.917 21.1024C154.991 20.2386 155.114 19.4488 155.311 18.7084C155.533 17.8446 155.361 17.0055 154.966 16.3145L102.747 50.4966L154.966 23.6692Z" fill="white"/>
<path d="M28.4961 91.0706C28.644 92.3046 28.7425 93.5633 28.8411 94.822C28.915 95.8092 28.989 97.0185 28.989 98.4006C28.989 98.5981 29.0136 98.7708 29.0383 98.9436L87.0245 60.9854L28.4961 91.0706Z" fill="white"/>
<path d="M97.4233 64.8359L102.574 96.7229C103.338 96.5501 104.028 96.402 104.644 96.2539C105.038 96.1799 105.432 96.0812 105.876 96.0071L97.4233 64.8359Z" fill="white"/>
<path d="M82.021 108.594C82.2921 108.717 82.5385 108.866 82.7849 108.989C84.2143 109.754 85.964 109.31 86.8758 108.026L93.5295 65.1074L82.021 108.594Z" fill="white"/>
<path d="M86.0383 52.4463L55.8253 37.1445C54.9874 37.8356 53.8292 38.6994 52.3506 39.5879L86.0383 52.4463Z" fill="white"/>
<path d="M153.069 63.7255C154.646 63.2566 156.223 62.9605 157.702 62.7877C159.648 62.5409 160.807 60.6652 160.412 58.9129L104.324 56.124L153.069 63.7255Z" fill="white"/>
<path d="M103.337 59.9492L131.308 78.0152C133.674 77.4969 135.818 77.3242 137.346 77.2748C137.419 77.2748 137.469 77.2748 137.543 77.2501L103.337 59.9492Z" fill="white"/>
<path d="M70.5127 106.373C72.4349 106.249 73.9874 106.397 74.776 106.471C75.0718 106.496 75.3675 106.545 75.6632 106.595L91.6076 64.5889L70.5127 106.373Z" fill="white"/>
<path d="M103.732 59.0361L138.849 76.8306C139.49 76.4604 139.983 75.8681 140.23 75.1277C140.476 74.4366 140.747 73.8196 141.018 73.252L103.732 59.0361Z" fill="white"/>
<path d="M100.898 63.0098L116.794 87.3445C117.089 86.9003 117.41 86.4807 117.755 86.0365C118.075 85.6416 118.395 85.2714 118.716 84.9012L100.898 63.0098Z" fill="white"/>
<path d="M25.415 75.6947C25.3165 75.7441 25.2179 75.7934 25.1193 75.8428C23.271 76.8547 22.926 79.3721 24.4046 80.8776C24.4293 80.9022 24.4293 80.9022 24.4539 80.9269C24.9714 81.4452 25.415 82.0128 25.8093 82.5805L86.1121 59.1836L25.415 75.6947Z" fill="white"/>
<path d="M85.8163 58.2705L35.297 66.4397C34.4345 67.7724 33.6706 68.7349 33.227 69.2532C31.6005 71.1783 29.8755 72.7085 28.1997 73.9178L85.8163 58.2705Z" fill="white"/>
<path d="M43.9226 43.3145C43.3065 43.5119 42.6658 43.6847 42.0004 43.8327C40.4725 44.2029 39.4621 45.6344 39.5853 47.1893L85.5456 54.3465L43.9226 43.3145Z" fill="white"/>
<path d="M29.3828 99.9064C29.9743 100.992 31.1818 101.659 32.4879 101.535C33.5969 101.437 34.8044 101.363 36.1351 101.387C36.8991 101.412 37.8355 101.412 38.9199 101.511L87.6155 61.7754L29.3828 99.9064Z" fill="white"/>
<path d="M48.3823 104.102C48.9245 104.374 49.442 104.694 49.9842 105.015C51.241 105.83 52.3499 106.694 53.311 107.607L89.0442 63.1328L48.3823 104.102Z" fill="white"/>
<path d="M54.0015 108.297C54.6422 108.964 55.2336 109.63 55.7265 110.272C56.5644 111.358 57.9444 111.703 59.152 111.333L89.8332 63.7002L54.0015 108.297Z" fill="white"/>
<path d="M158.293 45.4121L104.175 54.1736L157.553 51.212C157.455 49.2869 157.701 47.3372 158.293 45.4121Z" fill="white"/>
<path d="M88.1571 49.1387L66.5693 22.6074C66.0764 23.6934 65.5343 24.8286 64.8936 25.9886L88.1571 49.1387Z" fill="white"/>
<path d="M98.3594 64.5146L106.861 95.8586C107.921 95.7105 109.079 95.5871 110.361 95.5378L98.3594 64.5146Z" fill="white"/>
<path d="M99.2715 64.1201L111.396 95.4888C112.604 95.316 113.589 94.4769 113.959 93.2922C113.984 93.1935 114.033 93.0948 114.058 92.9714L99.2715 64.1201Z" fill="white"/>
<path d="M96.4624 65.0576L98.286 98.0552C99.4443 97.6109 100.578 97.2654 101.613 96.9939L96.4624 65.0576Z" fill="white"/>
<path d="M100.109 63.6016L114.526 91.7124C114.945 90.6018 115.512 89.4418 116.226 88.2819L100.109 63.6016Z" fill="white"/>
<path d="M88.2806 62.4912L40.3242 101.634C42.4189 101.906 44.9079 102.449 47.4462 103.633L88.2806 62.4912Z" fill="white"/>
<path d="M92.5438 64.8848L76.624 106.767C78.2998 107.088 79.803 107.606 81.0845 108.174L92.5438 64.8848Z" fill="white"/>
<path d="M95.4765 65.1816L93.7515 100.376C94.9344 99.5859 96.1419 98.9689 97.3248 98.4507L95.4765 65.1816Z" fill="white"/>
<path d="M90.6962 64.1943L61.3457 109.779C63.884 107.681 66.8166 106.817 69.3302 106.496L90.6962 64.1943Z" fill="white"/>
<path d="M104.226 57.1113L145.06 67.946C146.859 66.3418 148.929 65.2065 151.024 64.392L104.226 57.1113Z" fill="white"/>
<path d="M94.2936 46.3012L95.9693 12.2178C94.7372 12.6373 93.7021 12.8841 92.9628 13.0569C92.815 13.0816 92.6425 13.1309 92.4453 13.1803L94.2936 46.3012Z" fill="white"/>
<path d="M92.7165 101.091L94.4909 65.1816L88.1821 105.83C88.5271 105.336 88.8968 104.818 89.3157 104.325C90.4 103.041 91.5336 101.98 92.7165 101.091Z" fill="white"/>
<path d="M102.278 61.6025L122.461 81.6923C123.373 81.0753 124.285 80.557 125.221 80.0881L102.278 61.6025Z" fill="white"/>
<path d="M101.637 62.3428L119.43 84.2095C120.144 83.4938 120.908 82.8521 121.672 82.2845L101.637 62.3428Z" fill="white"/>
<path d="M104.028 58.0732L141.486 72.3385C141.831 71.7215 142.176 71.1785 142.521 70.7096C143.039 69.9938 143.605 69.3275 144.197 68.7351L104.028 58.0732Z" fill="white"/>
<path d="M102.87 60.7881L126.256 79.6191C127.513 79.0762 128.795 78.6319 130.002 78.3111L102.87 60.7881Z" fill="white"/>
<path d="M91.4108 46.9675L82.3666 13.5257C81.5534 13.4023 80.7155 13.2543 79.853 13.0568C79.2615 12.9087 78.6701 12.7607 78.1279 12.5879L91.4108 46.9675Z" fill="white"/>
<path d="M90.5234 47.3626L76.9202 12.1932C76.033 11.8724 75.1951 11.5516 74.4558 11.206C73.6179 10.8358 72.7307 10.8358 71.9668 11.1567L90.5234 47.3626Z" fill="white"/>
<path d="M89.6613 47.8808L71.1048 11.6748C70.6612 12.045 70.2915 12.5633 70.119 13.1803C69.8233 14.1428 69.4783 15.2041 69.084 16.3147L89.6613 47.8808Z" fill="white"/>
<path d="M103.239 51.3607L157.406 30.3578C156.494 28.9511 155.533 27.026 155.114 24.7061L103.239 51.3607Z" fill="white"/>
<path d="M93.3081 46.4248L91.4845 13.3779C90.5727 13.5507 89.3898 13.6988 88.0591 13.7728L93.3081 46.4248Z" fill="white"/>
<path d="M88.8725 48.473L68.6401 17.4746C68.1719 18.7333 67.6298 20.1154 67.0137 21.5962L88.8725 48.473Z" fill="white"/>
<path d="M99.0747 47.263L124.482 7.82395C122.88 7.77459 121.155 7.55247 119.381 7.03418L99.0747 47.263Z" fill="white"/>
<path d="M95.2793 46.3006L100.923 9.92188C99.5426 10.761 98.1872 11.378 96.9797 11.8469L95.2793 46.3006Z" fill="white"/>
<path d="M85.594 57.3086L38.4016 59.9247C37.687 62.0472 36.7998 63.8735 35.9619 65.3297L85.594 57.3086Z" fill="white"/>
<path d="M39.7819 53.0876L85.4711 55.3582L39.708 48.2256C39.8559 49.657 39.9052 51.3106 39.7819 53.0876Z" fill="white"/>
<path d="M85.4712 56.3458L39.7082 54.0752C39.511 55.8275 39.166 57.4564 38.7471 58.9372L85.4712 56.3458Z" fill="white"/>
<path d="M86.5311 60.1221L26.3516 83.4696C27.4605 85.4441 28.0273 87.6653 28.3723 90.0346L86.5311 60.1221Z" fill="white"/>
<path d="M87.4923 49.8799L64.4013 26.8779C63.8591 27.8405 63.243 28.8277 62.5776 29.7902L87.4923 49.8799Z" fill="white"/>
<path d="M86.9249 50.6698L62.0102 30.5801C61.3695 31.4686 60.6548 32.3324 59.9155 33.1962L86.9249 50.6698Z" fill="white"/>
<path d="M85.7425 53.3841L51.2169 40.2295C49.6644 41.0933 47.7915 41.9818 45.6475 42.7469L85.7425 53.3841Z" fill="white"/>
<path d="M55.3328 36.8983C54.1992 37.8115 52.9917 38.6259 51.7349 39.391L52.8931 39.8353C54.0021 39.1442 55.0864 38.3791 56.0968 37.54C56.1707 37.4906 56.22 37.4413 56.2939 37.3919L55.3328 36.8983ZM61.6416 30.284C60.9762 31.1725 60.2862 32.0856 59.4976 32.9495L60.3355 33.4924C61.0748 32.6533 61.7648 31.7895 62.4055 30.901L61.6416 30.284ZM66.2253 22.1889C65.7324 23.2995 65.1656 24.4594 64.5495 25.6441L65.2642 26.3598C65.8803 25.2245 66.4224 24.1139 66.9153 23.0527L66.2253 22.1889ZM70.8829 11.2308C70.2914 11.6997 69.8725 12.3167 69.6507 13.0325C69.3796 13.9703 69.0593 14.8835 68.7389 15.7967L69.4289 16.8332C69.8479 15.6733 70.2422 14.4886 70.6118 13.304C70.7597 12.835 71.0061 12.4155 71.3758 12.0946L70.8829 11.2308ZM82.2189 13.0078C81.4796 12.8844 80.7403 12.761 79.9764 12.5635C79.2863 12.3908 78.5963 12.218 77.9063 11.9959L78.3499 13.1559C78.8181 13.2793 79.2863 13.4027 79.7546 13.5261C80.691 13.7482 81.6275 13.921 82.5146 14.0444L82.2189 13.0078ZM91.4602 12.8844C90.4252 13.0818 89.267 13.2299 87.9609 13.304L88.1087 14.2912C89.3409 14.2171 90.4991 14.069 91.4849 13.8963L91.4602 12.8844ZM97.005 11.3049L96.9558 12.3908C98.1386 11.9465 99.4448 11.3542 100.825 10.5644L101.022 9.28107C99.6173 10.1696 98.2372 10.8359 97.005 11.3049ZM112.654 2.8642C111.865 2.22251 110.855 1.90167 109.844 2.02507C109.524 2.04975 109.228 2.14847 108.933 2.2472L108.588 3.57993C108.982 3.25909 109.45 3.06164 109.943 3.01228C110.682 2.91356 111.422 3.16037 111.988 3.62929C112.383 3.95013 112.777 4.2463 113.171 4.54246L113.541 3.57993C113.27 3.35781 112.949 3.111 112.654 2.8642ZM119.628 6.6156L119.184 7.50409C120.934 8.02238 122.61 8.26918 124.187 8.31854L124.803 7.33133C123.176 7.33133 121.427 7.13389 119.628 6.6156ZM140.797 7.05985C140.452 6.09732 139.762 5.35691 138.825 4.93735C137.889 4.54246 136.829 4.54246 135.917 4.93735C135.769 5.01139 135.621 5.06075 135.474 5.13479L134.266 6.64028C134.956 6.39348 135.646 6.14668 136.311 5.85052C137.002 5.55435 137.765 5.55435 138.455 5.85052C139.146 6.14668 139.638 6.68964 139.885 7.38069C140.008 7.70154 140.131 8.02238 140.279 8.34322L141.018 7.60282C140.944 7.43005 140.871 7.23261 140.797 7.05985ZM142.891 10.5398C142.349 9.97212 141.906 9.33043 141.511 8.63939L140.797 9.35511C141.191 10.0215 141.659 10.6385 142.177 11.2061C143.088 12.1933 144.074 12.8844 145.085 13.4027L145.922 12.7116C144.863 12.2427 143.828 11.5517 142.891 10.5398ZM155.805 18.8323C156.051 17.8945 155.903 16.8826 155.386 16.0435L154.548 16.5864C154.893 17.1788 155.016 17.8945 154.843 18.5855C154.646 19.4 154.498 20.2391 154.424 21.0536C154.351 22.0408 154.375 23.0033 154.498 23.8918L155.435 23.3982C155.361 22.6578 155.361 21.8927 155.41 21.1029C155.484 20.3625 155.607 19.5727 155.805 18.8323ZM161.99 37.4413C161.916 37.9102 161.719 38.3791 161.423 38.7493C159.969 40.5263 158.836 42.4514 158.121 44.4505L159.255 44.2777C159.945 42.5748 160.93 40.9212 162.187 39.391C162.705 38.7493 163 37.9842 163.025 37.1698L161.99 37.4413ZM158.836 45.3143L157.751 45.487C157.185 47.3874 156.938 49.3372 157.086 51.2129L158.072 51.1635C157.924 49.2631 158.195 47.264 158.836 45.3143ZM150.112 64.244C148.14 65.0832 146.218 66.2185 144.493 67.7733L145.627 68.0695C147.598 66.4159 149.816 65.2806 152.034 64.5155L150.112 64.244ZM140.575 73.0796C140.279 73.6966 140.008 74.3136 139.786 74.98C139.54 75.7204 138.998 76.2633 138.332 76.5595L139.392 77.1025C140.008 76.6829 140.476 76.0659 140.723 75.3255C140.944 74.6838 141.216 74.0668 141.511 73.4498L140.575 73.0796ZM129.411 77.9663C128.228 78.3118 126.996 78.7314 125.789 79.299L126.651 79.9901C127.957 79.4224 129.263 79.0029 130.52 78.682L129.411 77.9663ZM121.304 81.9151C120.54 82.4828 119.825 83.1245 119.11 83.8155L119.726 84.5806C120.466 83.8402 121.23 83.1985 121.994 82.6062L121.304 81.9151ZM110.189 95.0697C109.031 95.1191 107.873 95.2425 106.739 95.4152L106.986 96.3778C108.169 96.205 109.351 96.1063 110.559 96.0569L110.189 95.0697ZM101.539 96.5012C100.529 96.7727 99.4201 97.0935 98.2619 97.5377L98.3112 98.5743C99.494 98.1054 100.628 97.7599 101.687 97.4637L101.539 96.5012ZM88.9466 103.979C88.7495 104.226 88.5523 104.473 88.3552 104.72L88.0101 107.015C88.5277 106.176 89.0945 105.361 89.7106 104.621C90.647 103.51 91.6328 102.548 92.6924 101.733L92.7664 100.45C91.4356 101.413 90.1295 102.573 88.9466 103.979ZM86.6301 107.435C86.2851 108.076 85.7183 108.545 85.0283 108.743C84.3383 108.94 83.6236 108.866 83.0075 108.545C82.7118 108.397 82.4407 108.249 82.145 108.101L81.8986 109.063C82.1203 109.162 82.3421 109.286 82.5393 109.409C83.4018 109.878 84.3876 109.977 85.324 109.68C85.8415 109.532 86.3344 109.261 86.7287 108.891L87.0737 106.669C86.9258 106.941 86.778 107.188 86.6301 107.435ZM74.8012 106.003C73.3719 105.855 72.0411 105.83 70.735 105.88L70.2175 106.916C71.6222 106.793 73.1008 106.818 74.678 106.99C74.9244 107.015 75.1955 107.04 75.4419 107.089L75.8116 106.151C75.4912 106.077 75.1462 106.028 74.8012 106.003ZM58.0436 111.013C57.2797 110.964 56.5896 110.594 56.1214 110.001C55.5546 109.261 54.9632 108.57 54.3224 107.928L53.7063 108.693C54.2978 109.286 54.8399 109.927 55.3575 110.594C55.9982 111.408 56.9593 111.926 57.9943 111.976C58.0682 111.976 58.1668 111.976 58.2408 111.976C58.4379 111.976 58.6104 111.951 58.7829 111.926L59.6701 110.569C59.1772 110.89 58.6104 111.038 58.0436 111.013ZM40.8424 101.215L39.8074 102.079C41.9267 102.301 44.465 102.819 47.1019 104.029L47.8412 103.288C45.3275 102.104 42.9125 101.511 40.8424 101.215ZM36.1355 100.894C35.9383 100.894 35.7412 100.894 35.5687 100.894C34.5337 100.894 33.474 100.944 32.439 101.042C31.675 101.116 30.9111 100.87 30.3443 100.351C30.1225 100.129 29.9253 99.8824 29.7775 99.6356L28.9396 100.179C29.1367 100.524 29.3832 100.82 29.6789 101.092C30.4428 101.783 31.4779 102.128 32.5129 102.03C33.6958 101.906 34.9033 101.857 36.1108 101.881C36.7516 101.881 37.5155 101.906 38.3534 101.956L39.4624 101.067C38.1316 100.919 36.998 100.894 36.1355 100.894ZM26.8202 83.2725L25.8838 83.6427C27.0174 85.6172 27.5595 87.8631 27.9045 90.2571L28.841 89.7881C28.496 87.4682 27.9292 85.2716 26.8202 83.2725ZM34.6322 66.564C33.9915 67.5265 33.3754 68.3163 32.8333 68.958C31.0836 71.0311 29.0382 72.8575 26.7463 74.3383L29.4571 73.5979C30.9603 72.4132 32.3404 71.0805 33.5726 69.5997C34.2626 68.7852 35.0758 67.6993 35.9137 66.3666L34.6322 66.564ZM39.2159 54.0511C39.0188 55.8281 38.6738 57.457 38.2302 58.9625L39.2652 58.9131C39.6842 57.4323 40.0292 55.8281 40.2017 54.1005L39.2159 54.0511ZM42.9864 43.0684C42.6167 43.1671 42.2471 43.2658 41.8774 43.3645C40.1277 43.7841 38.9695 45.3883 39.0927 47.1406L40.1031 47.2887C39.906 45.9313 40.7931 44.6479 42.1239 44.3271C43.0357 44.1049 43.9475 43.8581 44.8347 43.562L42.9864 43.0684ZM39.1913 48.1525C39.3638 49.7814 39.3884 51.435 39.2899 53.0639L40.2756 53.1132C40.3988 51.5337 40.3495 49.9048 40.2017 48.3006L39.1913 48.1525ZM37.8852 59.9744C37.1705 62.0969 36.2587 63.9232 35.3223 65.4534L36.5791 65.2559C37.4416 63.7504 38.2795 61.9488 38.9202 59.925L37.8852 59.9744ZM24.7748 80.5577C24.1587 79.9407 23.8876 79.1016 24.0109 78.2378C24.1341 77.3986 24.627 76.7076 25.3663 76.288C25.9824 75.9425 26.5738 75.597 27.1652 75.2268L24.0355 76.0659C23.4934 76.6089 23.1483 77.2999 23.0498 78.0897C22.8773 79.2497 23.2469 80.3849 24.0848 81.2241L24.1341 81.2734C24.6023 81.7424 24.9966 82.2607 25.3663 82.7789L26.3027 82.4087C25.8838 81.767 25.3909 81.1747 24.8241 80.5824L24.7748 80.5577ZM29.4817 98.4016C29.4817 97.1922 29.4324 95.9829 29.3339 94.7736C29.2353 93.4408 29.1121 92.1081 28.9642 90.8247L28.0278 91.3183C28.151 92.4783 28.2496 93.6629 28.3481 94.8723C28.4467 96.0322 28.496 97.2416 28.496 98.4262C28.496 98.6977 28.5206 98.9939 28.5946 99.2654L29.4817 98.673C29.4817 98.5496 29.4817 98.4756 29.4817 98.4016ZM50.2562 104.621C49.7634 104.3 49.2459 104.004 48.753 103.757L48.0137 104.498C48.5805 104.794 49.1473 105.115 49.7141 105.46C50.8723 106.201 51.9813 107.064 52.9917 108.002L53.6078 107.237C52.5727 106.25 51.4391 105.386 50.2562 104.621ZM62.1098 108.57L60.3601 111.285C60.508 111.186 60.6312 111.063 60.7544 110.939C60.9023 110.791 61.0501 110.643 61.2226 110.495C63.3173 108.619 65.9295 107.459 69.0593 107.015L69.6014 105.954C66.7181 106.275 64.2291 107.163 62.1098 108.57ZM76.822 106.299L76.477 107.237C78.0295 107.533 79.5328 108.002 80.9867 108.644L81.2332 107.681C79.8039 107.064 78.3252 106.595 76.822 106.299ZM97.3008 97.908C96.1425 98.4016 94.9596 98.9939 93.7767 99.759L93.7028 100.993C94.9103 100.179 96.1425 99.5122 97.3501 98.9939L97.3008 97.908ZM105.754 95.5633C105.335 95.6374 104.94 95.7114 104.546 95.7854C103.93 95.9088 103.265 96.0569 102.501 96.2297L102.648 97.2169C103.412 97.0195 104.127 96.8714 104.743 96.748C105.162 96.6493 105.581 96.5752 106 96.5012L105.754 95.5633ZM113.763 92.3796C113.664 92.6264 113.59 92.8979 113.516 93.1447C113.196 94.1812 112.284 94.9216 111.249 95.0204L111.619 95.9582C112.9 95.7361 113.96 94.8476 114.428 93.5889L113.763 92.3796ZM115.907 87.8137C115.266 88.8503 114.699 89.9609 114.206 91.1209L114.798 92.3055C115.266 91.0468 115.833 89.8622 116.498 88.7269L115.907 87.8137ZM118.42 84.5312C118.051 84.9261 117.706 85.321 117.385 85.7406C117.09 86.1108 116.794 86.5057 116.523 86.9005L117.114 87.789C117.435 87.2954 117.804 86.8018 118.174 86.3329C118.47 85.9627 118.765 85.6172 119.061 85.2716L118.42 84.5312ZM124.803 79.7433C123.891 80.2122 123.004 80.7305 122.117 81.3228L122.831 82.0385C123.768 81.4215 124.704 80.8786 125.665 80.4343L124.803 79.7433ZM136.632 76.8063C134.981 76.8804 132.935 77.1025 130.717 77.6208L131.876 78.3858C133.946 77.9663 135.843 77.8182 137.347 77.7688C137.667 77.7688 137.963 77.7195 138.258 77.6208L136.632 76.8063ZM143.68 68.5878C143.138 69.1554 142.62 69.7724 142.152 70.4388C141.758 71.0064 141.388 71.5741 141.043 72.1911L141.98 72.5366C142.275 72.0183 142.596 71.5001 142.965 71.0064C143.532 70.2167 144.148 69.5256 144.814 68.8839L143.68 68.5878ZM160.93 58.9378L159.895 58.8884C160.068 59.4808 160.043 60.1224 159.772 60.7148C159.378 61.5786 158.589 62.1709 157.653 62.2943C155.928 62.5164 153.981 62.8866 151.985 63.553L154.301 63.9232C155.509 63.627 156.692 63.4296 157.776 63.2815C159.082 63.1088 160.166 62.319 160.684 61.1097C160.98 60.3939 161.054 59.6535 160.93 58.9378ZM160.561 57.9259C160.487 57.7778 160.388 57.6544 160.314 57.5063C159.797 56.7906 159.378 56.0008 159.033 55.2111C158.614 54.2239 158.343 53.212 158.17 52.1507L157.185 52.2001C157.357 53.36 157.653 54.4953 158.121 55.5813C158.441 56.371 158.86 57.1361 159.353 57.8519L160.561 57.9259ZM161.546 34.1341C160.856 33.6158 160.24 33.0482 159.649 32.4312C159.329 32.0856 158.91 31.6167 158.441 30.9997L157.505 31.3699C158.047 32.1103 158.54 32.7027 158.934 33.0975C159.55 33.7639 160.216 34.3562 160.955 34.9239C161.448 35.3188 161.793 35.8371 161.941 36.4294L162.902 36.1826C162.705 35.3681 162.237 34.6524 161.546 34.1341ZM155.583 24.4594L154.671 24.9284C155.115 27.1743 156.026 29.0747 156.963 30.5308L157.899 30.1606C156.938 28.7291 155.977 26.7794 155.583 24.4594ZM152.478 14.2665C151.862 14.2171 151.245 14.1431 150.654 14.0444C149.57 13.8469 148.288 13.6248 146.982 13.1559L146.095 13.8716C147.648 14.5133 149.2 14.7848 150.482 15.0069C151.122 15.1303 151.763 15.2043 152.404 15.2537C152.971 15.3031 153.488 15.5005 153.907 15.846L154.77 15.2784C154.153 14.6861 153.34 14.3159 152.478 14.2665ZM132.935 6.02328C131.506 6.44284 129.017 7.18325 126.01 7.33133L125.345 8.34322C128.376 8.29386 130.939 7.6275 132.59 7.15857L133.675 5.80115C133.428 5.8752 133.182 5.94924 132.935 6.02328ZM117.952 6.04796C116.72 5.55435 115.537 4.93735 114.403 4.19694L114.034 5.13479C115.167 5.8752 116.35 6.4922 117.558 6.96113C117.78 7.03517 117.977 7.13389 118.198 7.20793L118.642 6.31944C118.42 6.22072 118.174 6.122 117.952 6.04796ZM107.38 3.45653C106.665 4.41906 105.877 5.30755 105.039 6.14668C104.102 7.08453 103.117 7.8743 102.156 8.56535L101.958 9.89808C103.215 9.08363 104.497 8.07174 105.754 6.86241C106.246 6.39348 106.715 5.8752 107.158 5.35691L107.774 3.06164C107.602 3.18505 107.479 3.30845 107.38 3.45653ZM92.8649 12.5882C92.7171 12.6129 92.5692 12.6623 92.4213 12.687L92.4706 13.6742C92.6678 13.6248 92.8896 13.5754 93.0867 13.5508C93.7275 13.4027 94.7378 13.1559 95.9454 12.761L95.9947 11.6997C94.6639 12.144 93.5549 12.4155 92.8649 12.5882ZM86.9751 13.3286C85.8169 13.3533 84.5847 13.304 83.2786 13.1559L83.5497 14.1678C84.8065 14.2912 86.014 14.3159 87.123 14.2912L86.9751 13.3286ZM76.6741 11.601C75.9841 11.3542 75.3187 11.0581 74.6534 10.7619C73.7169 10.3423 72.6819 10.3176 71.7208 10.7125L72.1644 11.601C72.8297 11.3542 73.569 11.3542 74.2344 11.6751C75.1709 12.1193 76.1566 12.4895 77.1423 12.8104L76.6741 11.601ZM68.32 16.9566C67.8517 18.24 67.3096 19.6468 66.6688 21.1523L67.3589 22.0161C67.9996 20.56 68.5171 19.2025 68.9853 17.9685L68.32 16.9566ZM64.0566 26.5326C63.4898 27.5198 62.8984 28.507 62.2084 29.4942L62.9723 30.1112C63.6377 29.1487 64.2291 28.2108 64.7713 27.2483L64.0566 26.5326ZM58.8076 33.6899C57.9943 34.5537 57.1072 35.3928 56.1707 36.2073L57.1318 36.7009C58.0436 35.9111 58.8815 35.0966 59.6701 34.2328L58.8076 33.6899ZM50.6259 40.008C48.8023 41.0199 46.8308 41.859 44.7854 42.5254L46.4858 42.9697C48.3587 42.2786 50.133 41.4395 51.8334 40.4523L50.6259 40.008Z" fill="black"/>
</g>
<path d="M226.963 106.695C235.43 104.263 246.885 101.208 260.582 98.2771C284.737 93.1328 305.064 90.7321 321.905 89.2356C379.585 84.1536 408.441 81.5971 428.675 87.0532C496.971 105.448 540.519 187.975 529.22 201.475C520.099 212.356 469.889 185.045 454.823 176.845C436.613 166.93 426.62 157.671 420.893 151.591C415.227 145.605 414.792 143.828 411.243 140.367C397.391 126.774 377.095 126.992 357.702 126.649C349.982 126.524 301.329 125.558 257.78 118.854C242.869 116.547 216.753 111.777 217.002 108.878C217.126 107.599 222.294 107.007 226.963 106.695Z" fill="#CCC08F" stroke="black" stroke-miterlimit="10"/>
<path d="M271.553 102.654C271.494 103.011 271.404 103.368 271.345 103.755L270.482 108.067L268.757 108.156C263.728 109.821 260.634 112.914 260.634 112.914C249.953 116.483 210.056 113.747 205.176 113.39C203.391 111.338 202.082 109.197 201.1 107.353C200.862 106.877 200.624 106.431 200.416 105.985L203.986 107.085L204.641 107.978C204.641 107.978 249.209 111.308 260.604 107.531C260.604 107.531 263.699 104.439 268.727 102.773L271.553 102.654Z" fill="#91825E" stroke="black" stroke-miterlimit="10"/>
<path d="M270.483 108.066L269.977 110.683C269.888 111.13 269.769 111.546 269.59 111.962L268.757 111.992C263.729 113.657 260.635 116.75 260.635 116.75C251.62 119.754 221.868 118.267 209.789 117.523C207.974 116.304 206.427 114.877 205.147 113.36C210.027 113.717 249.954 116.423 260.605 112.884C260.605 112.884 263.7 109.791 268.728 108.126L270.483 108.066Z" fill="#5E4B21" stroke="black" stroke-miterlimit="10"/>
<path d="M269.59 111.933C269.174 112.884 268.519 113.747 267.656 114.371C263.253 117.642 259.326 119.308 256.618 120.23C252.156 121.746 243.26 120.051 225.646 120.884C221.749 121.062 217.732 121.3 213.151 119.338C211.931 118.802 210.83 118.208 209.818 117.494C221.868 118.237 251.65 119.694 260.635 116.721C260.635 116.721 263.729 113.628 268.757 111.962L269.59 111.933Z" fill="#453000" stroke="black" stroke-miterlimit="10"/>
<path d="M272 102V103.546C272 103.546 271.762 103.636 271.345 103.784C269.174 104.558 262.301 107.145 261.765 109.375C261.111 112.052 214.519 111.814 205.147 109.375L202.916 108.721L202.678 108.007L201.131 107.353L200 106.877L200.446 105.985L204.017 107.085L204.671 107.978C204.671 107.978 249.24 111.308 260.635 107.531C260.635 107.531 263.729 104.439 268.757 102.773C269.769 102.446 270.84 102.178 272 102Z" fill="#917433" stroke="black" stroke-miterlimit="10"/>
<path d="M318.459 105.811C318.369 106.261 318.279 106.681 318.188 107.131L317.166 112.321L315.061 112.411C308.986 114.421 305.227 118.172 305.227 118.172C292.326 122.462 244.09 119.162 238.226 118.742C236.09 116.281 234.497 113.701 233.324 111.481C233.023 110.911 232.752 110.371 232.512 109.831L236.812 111.181L237.624 112.261C237.624 112.261 291.484 116.281 305.227 111.721C305.227 111.721 308.956 108.001 315.061 105.961L318.459 105.811Z" fill="#F28630" stroke="black" stroke-miterlimit="10"/>
<path d="M317.166 112.32L316.535 115.471C316.444 116.011 316.264 116.521 316.053 117.001L315.061 117.061C308.986 119.071 305.227 122.821 305.227 122.821C294.371 126.421 258.404 124.681 243.819 123.781C241.624 122.311 239.759 120.571 238.195 118.771C244.09 119.191 292.326 122.491 305.197 118.201C305.197 118.201 308.926 114.48 315.031 112.44L317.166 112.32Z" fill="#994A0B" stroke="black" stroke-miterlimit="10"/>
<path d="M316.083 117.001C315.572 118.171 314.79 119.191 313.737 119.971C308.414 123.902 303.663 125.942 300.415 127.052C295.032 128.882 284.266 126.842 262.975 127.862C258.283 128.072 253.412 128.372 247.878 125.972C246.435 125.342 245.082 124.592 243.849 123.752C258.404 124.652 294.371 126.422 305.257 122.791C305.257 122.791 308.986 119.071 315.091 117.031L316.083 117.001Z" fill="#88C462" stroke="black" stroke-miterlimit="10"/>
<path d="M319 105V106.86C319 106.86 318.699 106.95 318.188 107.13C315.572 108.06 307.272 111.18 306.61 113.881C305.798 117.091 249.502 116.851 238.195 113.881L235.488 113.071L235.218 112.261L233.353 111.481L232 110.91L232.541 109.83L236.842 111.18L237.654 112.261C237.654 112.261 291.514 116.281 305.257 111.721C305.257 111.721 308.986 108 315.091 105.96C316.293 105.57 317.587 105.21 319 105Z" fill="#040C33" stroke="black" stroke-miterlimit="10"/>
<path d="M95.4552 58.5017C94.715 57.825 94.201 58.0095 93.6252 57.2918C92.9467 56.4305 92.9878 55.3437 93.0084 54.872C93.029 54.3183 93.0906 53.2725 93.6252 53.0469C94.1804 52.8009 95.1879 53.5391 96.0515 54.872C96.0515 54.667 96.0515 54.4619 96.0515 54.2568C96.0515 53.8467 95.9898 53.6826 96.0515 53.6416C96.1543 53.6006 96.4627 53.8877 96.6683 54.2568C96.9973 54.8925 96.7506 55.4462 96.6683 56.6766C96.6478 57.1688 96.6478 57.5994 96.6683 57.8865C97.4086 58.6863 98.0665 59.3015 98.4983 59.7116C100.513 61.5777 101.706 62.2134 102.755 63.9565C103.063 64.4691 103.248 64.8998 103.371 65.1664C103.783 65.1664 104.42 65.1458 105.201 65.1664C107.833 65.2074 109.19 65.2484 110.074 65.7816C111.185 66.4378 112.254 67.8732 111.904 68.8165C111.473 69.9444 109.108 69.9854 107.031 70.0264C104.708 70.0674 102.796 69.7188 101.562 69.4112C99.9582 67.7912 99.0535 66.2737 98.5189 65.1664C97.1618 62.3364 96.6889 60.9215 96.6889 60.9215C96.3394 59.8961 96.1749 59.1579 95.4552 58.5017Z" fill="#938650" stroke="black" stroke-miterlimit="10"/>
<path d="M103.372 76.7119C104.092 76.876 105.14 77.1016 106.415 77.3271C108.225 77.6347 110.178 77.9628 112.501 77.9423C114.249 77.9218 117.662 77.8808 117.971 76.7324C118.176 75.9327 116.84 74.9689 116.758 74.9073C115.257 73.8615 113.386 74.1691 112.501 74.2921C110.301 74.6203 107.238 74.9073 102.776 74.9073C102.262 74.6408 101.419 74.2921 100.35 74.2921C99.0542 74.2921 97.3682 74.8048 97.3065 75.502C97.2654 76.0557 98.2112 76.5479 98.5196 76.7119C100.35 77.6757 102.467 77.04 103.372 76.7119Z" fill="#938650" stroke="black" stroke-miterlimit="10"/>
<path d="M114.968 62.7467C114.721 63.5259 115.441 64.0591 115.523 65.7817C115.564 66.6019 115.4 66.6634 115.523 66.9915C116.16 68.7756 121.321 68.7141 121.609 67.6067C121.691 67.2991 121.321 67.1761 121.054 66.3969C120.602 65.0434 121.342 64.3462 121.054 63.3619C120.643 61.9264 118.36 61.0446 116.633 61.5368C116.222 61.6598 115.215 61.9469 114.968 62.7467Z" fill="#938650" stroke="black" stroke-miterlimit="10"/>
<path d="M131.952 83.9911C131.438 84.5243 130.636 85.2215 129.526 85.8162C128.313 86.4519 127.059 86.8005 124.653 87.0261C122.844 87.1901 120.376 87.2927 117.395 87.0261C117.374 87.0261 117.374 87.0261 117.354 87.0261C116.572 85.2625 116.264 83.7655 116.14 82.7812C115.873 80.71 116.223 79.9513 115.832 77.0188C115.688 75.932 115.729 76.7112 115.215 73.9838C115.01 72.9175 114.968 72.5279 114.598 72.1587C114.167 71.7281 113.591 71.6256 112.172 71.5435C111.226 71.5025 109.993 71.482 108.533 71.5435C108.636 69.2263 108.738 66.8885 108.841 64.5713C112.049 65.125 114.475 65.207 116.14 65.1865C116.716 65.166 117.456 65.1455 118.567 65.1865C119.821 65.2275 121.939 65.33 123.44 65.8017C127.079 66.9501 128.806 71.0309 128.909 71.2565C130.266 74.558 128.704 76.178 130.122 80.3614C130.554 81.6328 131.109 82.6581 131.562 83.3964C131.706 83.6015 131.829 83.8065 131.952 83.9911Z" fill="#EFE8D3" stroke="black" stroke-miterlimit="10"/>
<path d="M116.736 114.3C116.736 117.541 116.736 120.76 116.736 124C118.956 124 121.198 124 123.418 124C123.501 122.339 123.562 120.063 123.418 117.335C123.192 112.783 122.678 112.147 122.205 111.881C120.396 110.855 116.921 114.136 116.736 114.3Z" fill="#938650" stroke="black" stroke-miterlimit="10"/>
<path d="M130.739 108.846C130.451 109.81 130.595 110.691 130.739 111.266C131.829 112.024 133.474 113.111 135.612 114.301C138.635 115.982 139.416 116.044 141.081 117.336C143.796 119.427 143.323 120.453 145.338 121.58C148.484 123.344 153.048 122.749 153.85 120.965C154.2 120.186 153.912 118.976 153.233 118.545C152.658 118.176 152 118.504 151.403 118.545C149.327 118.689 147.558 115.346 146.53 113.706C144.433 110.322 139.765 104.868 135.591 105.216C133.679 105.36 131.356 106.775 130.739 108.846Z" fill="#938650" stroke="black" stroke-miterlimit="10"/>
<path d="M137.731 106.118C136.415 107.328 134.996 108.333 133.475 109.153C130.39 110.793 129.157 110.424 126.175 112.188C123.728 113.623 123.77 114.362 121.919 115.223C119.267 116.453 116.552 116.228 114.62 115.838C114.846 114.464 115.113 112.372 115.236 109.768C115.422 105.646 114.949 105.544 115.236 103.103C115.751 98.838 117.252 98.5304 117.663 93.9984C117.868 91.7632 117.704 89.569 117.663 89.1383C117.601 88.2771 117.498 87.6003 117.395 87.0262C120.377 87.2927 122.844 87.1902 124.654 87.0262C127.039 86.8006 128.293 86.452 129.527 85.8163C130.637 85.2216 131.439 84.5244 131.953 83.9912C131.83 83.8066 131.706 83.6221 131.562 83.3965C132.303 83.8476 132.858 84.2988 132.858 84.2988C133.084 84.4833 135.284 86.2879 136.497 89.1589C137.587 91.7222 137.114 93.3422 137.114 97.6486C137.114 99.6788 137.217 102.591 137.731 106.118Z" fill="#875175" stroke="black" stroke-miterlimit="10"/>
<path d="M113.693 57.2918C113.405 57.7019 113.569 57.9685 113.693 59.7116C113.878 62.398 113.631 63.6694 114.31 63.9565C114.433 64.018 114.556 64.018 114.926 63.9565C115.913 63.7924 117.147 63.5668 117.97 62.7466C119.265 61.4342 119.532 58.6247 117.97 57.2918C116.695 56.205 114.412 56.3075 113.693 57.2918Z" fill="#938650" stroke="black" stroke-miterlimit="10"/>
<path d="M113.693 56.0819C113.323 56.5126 112.974 56.9637 113.076 57.2918C113.22 57.6609 113.817 57.4354 114.289 57.907C114.927 58.5222 114.618 59.6706 114.906 59.7321C115.112 59.7731 115.215 59.1374 115.523 59.1169C115.914 59.1169 116.49 60.2858 116.14 60.942C115.934 61.3111 115.564 61.2906 115.523 61.5572C115.482 61.9058 116.161 62.0699 116.736 62.7671C117.189 63.3413 117.024 63.5668 117.353 63.977C118.176 65.0023 120.581 65.0843 121.609 63.977C121.836 63.7309 121.959 63.4028 122.226 62.7671C122.391 62.357 122.637 61.6187 122.843 60.3473C123.069 58.8093 123.213 57.866 122.843 56.7176C122.658 56.1434 122.555 55.8153 122.226 55.5077C121.753 55.0361 121.26 55.0566 118.587 54.8925C117.518 54.831 116.962 54.79 116.161 54.8925C115.318 54.9951 114.783 55.1591 114.331 55.5077C114.022 55.6923 113.837 55.9179 113.693 56.0819Z" fill="#191401" stroke="black" stroke-miterlimit="10"/>
<path d="M230.795 100.828C230.591 101.814 230.407 102.821 230.223 103.807L227.937 115.559L223.242 115.785C214.281 118.784 207.586 123.469 204.054 126.324C201.666 128.256 198.89 129.591 195.89 130.228C160.964 137.727 63.4945 131.009 51.0021 130.125C46.2051 124.557 42.633 118.702 40.0406 113.669C39.9385 113.463 39.8365 113.278 39.7344 113.093C39.1424 111.922 40.2447 110.607 41.4899 110.998L47.879 112.991L49.6957 115.415C49.6957 115.415 163.005 123.962 198.074 115.107C199.931 114.634 201.625 113.73 203.095 112.498C206.279 109.806 213.403 104.485 223.242 101.177L230.795 100.828Z" fill="#B59E40" stroke="black" stroke-miterlimit="10"/>
<path d="M227.938 115.56L226.549 122.689C226.325 123.88 225.958 125.051 225.488 126.14L223.243 126.243C214.282 129.242 207.586 133.927 204.055 136.782C201.708 138.673 198.972 140.008 196.033 140.645C167.006 146.932 94.1952 143.295 63.597 141.405C58.6776 138.077 54.5135 134.153 51.0229 130.085C64.2094 131.03 172.334 138.467 201.218 128.77C201.218 128.77 209.607 120.326 223.243 115.765L227.938 115.56Z" fill="#DDC831" stroke="black" stroke-miterlimit="10"/>
<path d="M225.488 126.14C224.365 128.769 222.569 131.091 220.242 132.817C208.321 141.754 197.666 146.335 190.338 148.842C178.274 152.971 154.147 148.369 106.422 150.67C95.91 151.184 84.9893 151.821 72.6194 146.417C69.3534 145 66.3528 143.295 63.5767 141.425C96.2161 143.459 176.845 147.445 201.197 139.288C201.197 139.288 209.587 130.844 223.222 126.283L225.488 126.14Z" fill="#99782E" stroke="black" stroke-miterlimit="10"/>
<path d="M232 99V103.171C232 103.171 231.326 103.397 230.203 103.787C224.304 105.883 205.749 112.909 204.218 119.031C202.401 126.325 76.2322 125.708 50.88 119.031L44.8379 117.203L44.2255 115.374L40.0206 113.607L36.9995 112.375L37.469 111.43C37.8977 110.567 38.8775 110.156 39.7756 110.443L47.8793 112.991L49.696 115.415C49.696 115.415 170.436 124.537 201.218 114.203C201.218 114.203 209.607 105.759 223.243 101.198C225.957 100.274 228.876 99.5136 232 99Z" fill="#111928" stroke="black" stroke-miterlimit="10"/>
</g>
<defs>
<clipPath id="clip0">
<rect width="360" height="144" fill="white"/>
</clipPath>
<clipPath id="clip1">
<rect width="445" height="135" fill="white" transform="translate(0 77)"/>
</clipPath>
<clipPath id="clip2">
<rect width="140" height="110" fill="white" transform="translate(23 2)"/>
</clipPath>
</defs>
</svg>
