<svg width="127" height="40" viewBox="0 0 127 40" fill="none" xmlns="http://www.w3.org/2000/svg">
<path d="M17.6324 8.54047L18.8667 7.32483C21.2905 4.93763 25.2366 4.87855 27.6743 7.25199C28.598 8.15334 29.2119 9.31702 29.4297 10.5796C29.6474 11.8422 29.4581 13.1402 28.8883 14.2914C28.615 14.8413 28.523 15.4615 28.6249 16.0654C28.7269 16.6694 29.0178 17.2269 29.4571 17.66C30.265 16.8626 30.9052 15.9162 31.3415 14.875C31.7778 13.8337 32.0016 12.718 32 11.5916C31.9982 10.4651 31.7715 9.35006 31.3321 8.31004C30.8928 7.27 30.2497 6.3254 29.4397 5.53021C26.0309 2.19185 20.4978 2.25828 17.0985 5.60602L5.33364 17.1928L4.36646 16.2403C1.90153 13.8126 1.88582 9.84427 4.39424 7.45973C5.32274 6.5798 6.50567 6.00538 7.77977 5.81578C9.05386 5.62617 10.3563 5.83072 11.5073 6.40118C12.0327 6.66634 12.6297 6.76119 13.2131 6.6722C13.7964 6.58321 14.3363 6.31493 14.7556 5.90567L14.7856 5.87629C14.795 5.86716 14.8024 5.85629 14.8074 5.84432C14.8125 5.83236 14.8151 5.81953 14.8151 5.80657C14.8151 5.79361 14.8125 5.78078 14.8074 5.76882C14.8024 5.75686 14.795 5.746 14.7856 5.73686C13.1664 4.18212 10.9965 3.30882 8.73504 3.30176C6.47364 3.2947 4.29814 4.15443 2.6689 5.69903C-0.840669 9.03583 -0.828128 14.5846 2.62128 17.9819L14.3827 29.5656L13.1333 30.7961C10.7095 33.1833 6.7633 33.2424 4.32567 30.8689C3.40196 29.9676 2.78812 28.8039 2.57035 27.5413C2.3526 26.2788 2.54185 24.9808 3.11154 23.8295C3.38485 23.2796 3.47697 22.6594 3.37503 22.0555C3.27307 21.4516 2.98214 20.894 2.54288 20.4609C1.73509 21.2584 1.09475 22.2047 0.658439 23.2459C0.222123 24.2872 -0.0016125 25.4028 8.74824e-06 26.5294C0.00163001 27.6558 0.228576 28.7709 0.667888 29.8108C1.1072 30.8509 1.75026 31.7955 2.56034 32.5907C5.96896 35.9292 11.5022 35.8629 14.9015 32.515L26.6816 20.9128L27.6524 21.8689C30.0763 24.2561 30.1363 28.1425 27.7264 30.5433C26.8113 31.4532 25.6297 32.0577 24.3478 32.2723C23.0659 32.4867 21.7479 32.3003 20.579 31.7391C20.0205 31.4698 19.3905 31.379 18.777 31.4796C18.1636 31.5801 17.5973 31.867 17.1576 32.2999C17.9673 33.0956 18.9281 33.7263 19.9853 34.156C21.0426 34.5857 22.1753 34.8061 23.3192 34.8045C24.4628 34.8028 25.5951 34.5793 26.651 34.1466C27.707 33.7139 28.6661 33.0806 29.4735 32.2827C32.8632 28.9256 32.7958 23.476 29.3967 20.1282L17.6324 8.54047ZM16.139 27.835L7.09041 18.9232L15.8755 10.271L24.9241 19.1828L16.139 27.835Z" fill="white"/>
<path d="M44.088 16.144C43.2133 16.144 42.392 16.0267 41.624 15.792C40.8667 15.5573 40.2213 15.2213 39.688 14.784L40.392 13.28C40.9467 13.696 41.5227 14.0053 42.12 14.208C42.728 14.4 43.3893 14.496 44.104 14.496C44.8933 14.496 45.5013 14.3573 45.928 14.08C46.3653 13.8027 46.584 13.4133 46.584 12.912C46.584 12.4853 46.3813 12.16 45.976 11.936C45.5813 11.7013 44.9253 11.4827 44.008 11.28C42.5787 10.9707 41.5387 10.5707 40.888 10.08C40.2373 9.58933 39.912 8.87467 39.912 7.936C39.912 7.264 40.0933 6.66667 40.456 6.144C40.8187 5.62133 41.3307 5.21067 41.992 4.912C42.664 4.61333 43.4373 4.464 44.312 4.464C45.112 4.464 45.8693 4.58667 46.584 4.832C47.3093 5.06667 47.9013 5.39733 48.36 5.824L47.672 7.328C46.6587 6.51733 45.5387 6.112 44.312 6.112C43.576 6.112 42.9947 6.26667 42.568 6.576C42.1413 6.87467 41.928 7.28533 41.928 7.808C41.928 8.256 42.1147 8.59733 42.488 8.832C42.872 9.06667 43.5227 9.28533 44.44 9.488C45.3893 9.712 46.1627 9.95733 46.76 10.224C47.3573 10.48 47.816 10.816 48.136 11.232C48.456 11.6373 48.616 12.1493 48.616 12.768C48.616 13.4507 48.4347 14.048 48.072 14.56C47.7093 15.0613 47.1867 15.4507 46.504 15.728C45.8213 16.0053 45.016 16.144 44.088 16.144ZM57.8923 7.936L54.3563 16H52.6123L49.1242 7.936H51.2203L53.5403 13.728L55.9083 7.936H57.8923ZM66.5191 7.92V16H64.5511V14.704C64.3058 15.152 63.9538 15.504 63.4951 15.76C63.0365 16.0053 62.5138 16.128 61.9271 16.128C61.2231 16.128 60.5991 15.9573 60.0551 15.616C59.5111 15.2747 59.0898 14.7893 58.7911 14.16C58.4925 13.5307 58.3431 12.8 58.3431 11.968C58.3431 11.136 58.4925 10.4 58.7911 9.76C59.1005 9.10933 59.5271 8.608 60.0711 8.256C60.6151 7.89333 61.2338 7.712 61.9271 7.712C62.5138 7.712 63.0365 7.84 63.4951 8.096C63.9538 8.34133 64.3058 8.688 64.5511 9.136V7.92H66.5191ZM62.4711 14.56C63.1325 14.56 63.6445 14.3307 64.0071 13.872C64.3698 13.4133 64.5511 12.768 64.5511 11.936C64.5511 11.0827 64.3698 10.4267 64.0071 9.968C63.6445 9.50933 63.1271 9.28 62.4551 9.28C61.7938 9.28 61.2765 9.52 60.9031 10C60.5405 10.4693 60.3591 11.1253 60.3591 11.968C60.3591 12.8 60.5405 13.44 60.9031 13.888C61.2765 14.336 61.7991 14.56 62.4711 14.56ZM73.0494 7.728C73.3587 7.728 73.6254 7.77067 73.8494 7.856L73.8334 9.68C73.492 9.54133 73.14 9.472 72.7774 9.472C72.0947 9.472 71.572 9.66933 71.2094 10.064C70.8574 10.4587 70.6814 10.9813 70.6814 11.632V16H68.6974V10.208C68.6974 9.35467 68.6547 8.592 68.5694 7.92H70.4414L70.6014 9.344C70.804 8.82133 71.124 8.42133 71.5614 8.144C71.9987 7.86667 72.4947 7.728 73.0494 7.728ZM79.587 7.712C81.5177 7.712 82.483 8.82133 82.483 11.04V16H80.483V11.136C80.483 10.496 80.3603 10.032 80.115 9.744C79.8697 9.44533 79.491 9.296 78.979 9.296C78.371 9.296 77.8803 9.49333 77.507 9.888C77.1337 10.272 76.947 10.784 76.947 11.424V16H74.963V10.208C74.963 9.35467 74.9203 8.592 74.835 7.92H76.707L76.851 9.248C77.1283 8.75733 77.5017 8.37867 77.971 8.112C78.451 7.84533 78.9897 7.712 79.587 7.712ZM84.6036 7.92H86.5876V16H84.6036V7.92ZM86.6996 4.256V6.224H84.4756V4.256H86.6996ZM98.3115 7.712C99.2288 7.712 99.9115 7.98933 100.36 8.544C100.808 9.088 101.032 9.92 101.032 11.04V16H99.0315V11.104C99.0315 10.464 98.9248 10.0053 98.7115 9.728C98.5088 9.44 98.1675 9.296 97.6875 9.296C97.1328 9.296 96.6955 9.49333 96.3755 9.888C96.0662 10.272 95.9115 10.8053 95.9115 11.488V16H93.9115V11.104C93.9115 10.4747 93.7995 10.016 93.5755 9.728C93.3622 9.44 93.0208 9.296 92.5515 9.296C91.9968 9.296 91.5595 9.49333 91.2395 9.888C90.9195 10.272 90.7595 10.8053 90.7595 11.488V16H88.7755V10.208C88.7755 9.35467 88.7328 8.592 88.6475 7.92H90.5195L90.6635 9.2C90.8982 8.72 91.2342 8.352 91.6715 8.096C92.1195 7.84 92.6315 7.712 93.2075 7.712C94.4448 7.712 95.2502 8.224 95.6235 9.248C95.8795 8.768 96.2422 8.39467 96.7115 8.128C97.1915 7.85067 97.7248 7.712 98.3115 7.712ZM40.232 24.608H45.176C46.4027 24.608 47.3573 24.9067 48.04 25.504C48.7227 26.0907 49.064 26.896 49.064 27.92C49.064 28.944 48.7173 29.7547 48.024 30.352C47.3413 30.9493 46.392 31.248 45.176 31.248H42.296V36H40.232V24.608ZM44.936 29.648C45.6507 29.648 46.1893 29.504 46.552 29.216C46.9253 28.9173 47.112 28.4907 47.112 27.936C47.112 27.3707 46.9307 26.944 46.568 26.656C46.2053 26.3573 45.6613 26.208 44.936 26.208H42.296V29.648H44.936ZM57.9636 27.92V36H56.0116V34.752C55.7556 35.2 55.4143 35.5413 54.9876 35.776C54.561 36.0107 54.0703 36.128 53.5156 36.128C51.5423 36.128 50.5556 35.0187 50.5556 32.8V27.92H52.5396V32.816C52.5396 33.4027 52.657 33.8347 52.8916 34.112C53.137 34.3893 53.5103 34.528 54.0116 34.528C54.5983 34.528 55.0676 34.336 55.4196 33.952C55.7716 33.568 55.9476 33.056 55.9476 32.416V27.92H57.9636ZM67.8629 24.224V36H65.8949V34.704C65.6495 35.152 65.2975 35.504 64.8389 35.76C64.3802 36.0053 63.8575 36.128 63.2709 36.128C62.5775 36.128 61.9589 35.952 61.4149 35.6C60.8709 35.248 60.4442 34.752 60.1349 34.112C59.8362 33.4613 59.6869 32.72 59.6869 31.888C59.6869 31.056 59.8362 30.3253 60.1349 29.696C60.4335 29.0667 60.8549 28.5813 61.3989 28.24C61.9429 27.888 62.5669 27.712 63.2709 27.712C63.8469 27.712 64.3589 27.8347 64.8069 28.08C65.2655 28.3147 65.6175 28.6507 65.8629 29.088V24.224H67.8629ZM63.7989 34.56C64.4602 34.56 64.9722 34.3307 65.3349 33.872C65.7082 33.4133 65.8949 32.7627 65.8949 31.92C65.8949 31.0773 65.7135 30.4267 65.3509 29.968C64.9882 29.5093 64.4762 29.28 63.8149 29.28C63.1429 29.28 62.6202 29.5093 62.2469 29.968C61.8842 30.416 61.7029 31.056 61.7029 31.888C61.7029 32.7307 61.8842 33.3867 62.2469 33.856C62.6202 34.3253 63.1375 34.56 63.7989 34.56ZM77.4011 27.92V36H75.4491V34.752C75.1931 35.2 74.8518 35.5413 74.4251 35.776C73.9985 36.0107 73.5078 36.128 72.9531 36.128C70.9798 36.128 69.9931 35.0187 69.9931 32.8V27.92H71.9771V32.816C71.9771 33.4027 72.0945 33.8347 72.3291 34.112C72.5745 34.3893 72.9478 34.528 73.4491 34.528C74.0358 34.528 74.5051 34.336 74.8571 33.952C75.2091 33.568 75.3851 33.056 75.3851 32.416V27.92H77.4011ZM83.2364 36.128C82.3937 36.128 81.663 35.9573 81.0444 35.616C80.4257 35.2747 79.951 34.7947 79.6204 34.176C79.2897 33.5467 79.1244 32.8107 79.1244 31.968C79.1244 31.1253 79.295 30.384 79.6364 29.744C79.9884 29.104 80.479 28.608 81.1084 28.256C81.7484 27.8933 82.4844 27.712 83.3164 27.712C83.8924 27.712 84.447 27.8027 84.9804 27.984C85.5244 28.1653 85.9564 28.416 86.2764 28.736L85.7164 30.144C85.375 29.8667 85.0124 29.6587 84.6284 29.52C84.2444 29.3707 83.8657 29.296 83.4924 29.296C82.767 29.296 82.2017 29.5253 81.7964 29.984C81.391 30.432 81.1884 31.0827 81.1884 31.936C81.1884 32.7893 81.3857 33.44 81.7804 33.888C82.1857 34.336 82.7564 34.56 83.4924 34.56C83.8657 34.56 84.2444 34.4853 84.6284 34.336C85.0124 34.1867 85.375 33.9733 85.7164 33.696L86.2764 35.104C85.935 35.424 85.4924 35.6747 84.9484 35.856C84.4044 36.0373 83.8337 36.128 83.2364 36.128ZM92.2433 27.712C94.1739 27.712 95.1393 28.8213 95.1393 31.04V36H93.1393V31.136C93.1393 30.496 93.0166 30.032 92.7713 29.744C92.5259 29.4453 92.1473 29.296 91.6353 29.296C91.0273 29.296 90.5366 29.4933 90.1633 29.888C89.7899 30.272 89.6033 30.784 89.6033 31.424V36H87.6193V24.224H89.6033V29.088C89.8806 28.6507 90.2486 28.3147 90.7073 28.08C91.1659 27.8347 91.6779 27.712 92.2433 27.712ZM104.332 32.064H98.7639C98.8065 32.928 99.0199 33.568 99.4039 33.984C99.7985 34.3893 100.38 34.592 101.148 34.592C102.033 34.592 102.855 34.304 103.612 33.728L104.188 35.104C103.804 35.4133 103.329 35.664 102.764 35.856C102.209 36.0373 101.644 36.128 101.068 36.128C99.7452 36.128 98.7052 35.7547 97.9479 35.008C97.1905 34.2613 96.8119 33.2373 96.8119 31.936C96.8119 31.1147 96.9772 30.384 97.3079 29.744C97.6385 29.104 98.1025 28.608 98.6999 28.256C99.2972 27.8933 99.9745 27.712 100.732 27.712C101.841 27.712 102.716 28.0747 103.356 28.8C104.007 29.5147 104.332 30.5013 104.332 31.76V32.064ZM100.78 29.152C100.247 29.152 99.8092 29.312 99.4679 29.632C99.1372 29.9413 98.9239 30.3947 98.8279 30.992H102.588C102.524 30.384 102.337 29.9253 102.028 29.616C101.729 29.3067 101.313 29.152 100.78 29.152ZM110.378 27.728C110.687 27.728 110.954 27.7707 111.178 27.856L111.162 29.68C110.82 29.5413 110.468 29.472 110.106 29.472C109.423 29.472 108.9 29.6693 108.538 30.064C108.186 30.4587 108.01 30.9813 108.01 31.632V36H106.026V30.208C106.026 29.3547 105.983 28.592 105.898 27.92H107.77L107.93 29.344C108.132 28.8213 108.452 28.4213 108.89 28.144C109.327 27.8667 109.823 27.728 110.378 27.728ZM116.643 27.728C116.952 27.728 117.219 27.7707 117.443 27.856L117.427 29.68C117.086 29.5413 116.734 29.472 116.371 29.472C115.688 29.472 115.166 29.6693 114.803 30.064C114.451 30.4587 114.275 30.9813 114.275 31.632V36H112.291V30.208C112.291 29.3547 112.248 28.592 112.163 27.92H114.035L114.195 29.344C114.398 28.8213 114.718 28.4213 115.155 28.144C115.592 27.8667 116.088 27.728 116.643 27.728ZM126.689 27.92L122.929 36.544C122.502 37.5467 121.958 38.2773 121.297 38.736C120.636 39.1947 119.82 39.4987 118.849 39.648L118.401 38.112C119.158 37.9413 119.724 37.7227 120.097 37.456C120.481 37.2 120.79 36.816 121.025 36.304L121.281 35.712L117.921 27.92H120.017L122.337 33.728L124.705 27.92H126.689Z" fill="white"/>
</svg>
